<svg width="27" height="17" viewBox="0 0 27 17" fill="none" xmlns="http://www.w3.org/2000/svg">
<g clip-path="url(#clip0_48_2160)">
<path fill-rule="evenodd" clip-rule="evenodd" d="M27 0H0V17H27V0ZM13.5 12C15.433 12 17 10.433 17 8.5C17 6.567 15.433 5 13.5 5C11.567 5 10 6.567 10 8.5C10 10.433 11.567 12 13.5 12Z" fill="#184A9B"/>
<path d="M13.5 12C15.433 12 17 10.433 17 8.5C17 6.567 15.433 5 13.5 5C11.567 5 10 6.567 10 8.5C10 10.433 11.567 12 13.5 12Z" fill="#FFCC00"/>
<path fill-rule="evenodd" clip-rule="evenodd" d="M14.6746 11.798C14.3075 11.9288 13.9121 12 13.5 12C13.0879 12 12.6925 11.9288 12.3254 11.798C12.192 11.6121 12.0773 11.3993 11.9798 11.1718C11.8917 10.9664 11.8144 10.7411 11.749 10.5H10.6273C10.5174 10.3423 10.42 10.1752 10.3368 10H11.6349C11.5611 9.6086 11.516 9.1875 11.5036 8.75H10.0088C10.003 8.6674 10 8.5841 10 8.5C10 8.4159 10.003 8.3326 10.0088 8.25H11.5036C11.516 7.8125 11.5611 7.3914 11.6349 7H10.3368C10.42 6.8248 10.5174 6.6577 10.6273 6.5H11.749C11.8144 6.2589 11.8917 6.0336 11.9798 5.8282C12.0773 5.6007 12.192 5.3879 12.3254 5.202C12.6925 5.0712 13.0879 5 13.5 5C13.9121 5 14.3075 5.0712 14.6746 5.202C14.808 5.3879 14.9227 5.6007 15.0202 5.8282C15.1083 6.0336 15.1856 6.2589 15.251 6.5H16.3727C16.4826 6.6577 16.58 6.8248 16.6632 7H15.3651C15.4389 7.3914 15.484 7.8125 15.4964 8.25H16.9912C16.997 8.3326 17 8.4159 17 8.5C17 8.5841 16.997 8.6674 16.9912 8.75H15.4964C15.484 9.1875 15.4389 9.6086 15.3651 10H16.6632C16.58 10.1752 16.4826 10.3423 16.3727 10.5H15.251C15.1856 10.7411 15.1083 10.9664 15.0202 11.1718C14.9227 11.3993 14.808 11.6121 14.6746 11.798ZM13.75 11.9516C14.1552 11.793 14.5054 11.2552 14.7311 10.5H13.75V11.9516ZM13.75 10H14.8556C14.9337 9.6166 14.9828 9.1948 14.9962 8.75H13.75V10ZM13.25 8.75V10H12.1444C12.0663 9.6166 12.0172 9.1948 12.0038 8.75H13.25ZM13.25 11.9516C12.8448 11.793 12.4946 11.2552 12.2689 10.5H13.25V11.9516ZM12.1444 7C12.0663 7.3834 12.0172 7.8052 12.0038 8.25H13.25V7H12.1444ZM13.75 6.5V5.0484C14.1552 5.207 14.5054 5.7448 14.7311 6.5H13.75ZM13.75 7H14.8557C14.9337 7.3834 14.9828 7.8052 14.9962 8.25H13.75V7ZM13.25 6.5H12.2689C12.4946 5.7448 12.8448 5.207 13.25 5.0484V6.5Z" fill="#184A9B" fill-opacity="0.75"/>
<path d="M18.98 10.9432C19.2323 11.0556 19.3472 11.3524 19.2158 11.5952C18.5895 12.7517 17.6248 13.6949 16.4453 14.2944C15.1169 14.9697 13.5967 15.168 12.1395 14.856C10.6823 14.5441 9.37646 13.7409 8.44082 12.581C7.50517 11.4211 6.99651 9.9749 7.00002 8.4847C7.00353 6.9945 7.51901 5.5507 8.46011 4.3952C9.40121 3.23971 10.7108 2.4427 12.1695 2.13765C13.6281 1.8326 15.1474 2.03804 16.4726 2.71957C17.6492 3.32463 18.6095 4.27231 19.2303 5.4318C19.3606 5.6752 19.2442 5.9714 18.9915 6.0827L18.0875 6.4806C17.8348 6.5919 17.5421 6.4754 17.4036 6.2365C16.9721 5.4923 16.3348 4.88376 15.5636 4.48719C14.6436 4.01407 13.589 3.87145 12.5763 4.08322C11.5637 4.29499 10.6546 4.84828 10.0013 5.6504C9.34796 6.4526 8.99011 7.4548 8.98768 8.4894C8.98524 9.5239 9.33836 10.5279 9.98789 11.3331C10.6374 12.1383 11.5439 12.6959 12.5555 12.9124C13.5671 13.1289 14.6224 12.9913 15.5447 12.5225C16.3177 12.1296 16.9578 11.524 17.3928 10.7819C17.5325 10.5437 17.8258 10.4286 18.078 10.541L18.98 10.9432Z" fill="#FFCC00" fill-opacity="0.6"/>
</g>
<defs>
<clipPath id="clip0_48_2160">
<rect width="27" height="17" fill="white"/>
</clipPath>
</defs>
</svg>
