<svg width="27" height="17" viewBox="0 0 27 17" fill="none" xmlns="http://www.w3.org/2000/svg">
<g clip-path="url(#clip0_48_2200)">
<path fill-rule="evenodd" clip-rule="evenodd" d="M7.75 8.5C7.75 5.4928 10.0585 3.02481 13 2.77144V3.5C13 3.65503 12.7362 4 12.5 4C12.2239 4 12 4.22386 12 4.5V5C11.94 5.11 12 5.28 12.06 5.39C12.2809 5.8383 12.5356 5.5226 12.7362 5.2738C12.8444 5.1397 12.9369 5.025 13 5.06C13.11 5.11 13.22 5.28 13.17 5.39C13.104 5.5221 13.2048 5.6811 13.3027 5.8354C13.4467 6.0623 13.6479 5.8539 13.8351 5.6601C13.8921 5.6012 13.9477 5.5436 14 5.5C14 5.5 14.0265 5.0286 14 4.5C13.9832 4.16471 14.1082 4.02953 14.3616 3.81418C14.617 3.59693 14.9091 3.32733 15.0019 2.99303C15.0029 2.98971 15.0019 3.2862 15.0011 3.56547C15.0005 3.7458 15 3.91975 15 4V4.67C15 4.67 15.5 4.5 16 4.5C16.1621 4.50175 16.1705 4.99147 16 5C15.9638 5.0362 15.8913 5.0287 15.7781 5.0171C15.7035 5.0095 15.6112 5 15.5 5C15.1916 5 15 5.7206 15 6C15 6 14.1586 6.517 14 6.5C13.5 6.5 13.5 7 13.5 7H12.5C12.4852 7 12.4642 6.9989 12.4387 6.9976C12.275 6.9891 11.9252 6.971 11.83 7.17L11.77 7.3C11.69 7.48 11.61 7.66 11.39 7.83C11.3193 7.8918 11.3063 7.9694 11.2922 8.0535C11.2885 8.0753 11.2848 8.0975 11.28 8.12C11.28 8.6406 11.0071 9 11 9L9.78 9.5C9.5 9.7421 9.45469 10.2381 9.5 10.5C9.55401 10.8122 10 11 10.5 11H11C11.13 10.8939 11.1169 10.7009 11.104 10.5106C11.0891 10.291 11.0744 10.075 11.28 10C11.2955 9.9972 11.321 9.9934 11.3533 9.9885C11.5501 9.959 12 9.8916 12 9.78C11.94 9.56 13.24 9.28 13.5 9.28C13.6836 9.28 13.892 9.475 14.1045 9.6739C14.2739 9.8325 14.4459 9.9935 14.61 10.06C14.92 10.19 14.93 10.4 14.89 10.5C14.87 10.56 14.88 10.71 15.06 10.89C15.3069 11.1369 15.6846 11.2023 15.9327 11.2452C16.0664 11.2683 16.1625 11.285 16.18 11.32C16.1976 11.3552 16.2308 11.375 16.3068 11.4202L16.34 11.44C16.5 11.56 16.84 11.67 16.94 11.61C17.13 11.52 17.62 11.54 18 11.64C18.0065 11.7826 18.0097 11.9252 18.0095 12.0679C17.6185 12.5614 17.1482 12.9892 16.6178 13.3321L16.61 13.33C16.38 13.3 15.91 13.19 15.78 13.06C15.6146 12.8946 15.4936 13.0289 15.3383 13.2011C15.1556 13.4037 14.9255 13.6589 14.52 13.54C14.33 13.49 14.22 13.44 14.22 13.22C14.22 13.06 14 13.06 13.72 13.11C13.38 13.18 12.7 12.65 13.22 12.39C13.2902 12.3517 13.2708 12.3175 13.2346 12.2536C13.2141 12.2173 13.1881 12.1715 13.17 12.11C13.12 11.97 12.85 12.09 12.72 12.17C12.624 12.178 12.4593 12.2388 12.2763 12.3063C12.0017 12.4075 11.686 12.524 11.5 12.5C10.7757 12.3856 9.29 12.4165 9.29 12.4165C8.33449 11.3898 7.75 10.0131 7.75 8.5ZM9.07 6C9.30015 5.8849 9.90398 5.6595 9.78 6.1527C9.72214 6.3428 9.77765 6.371 9.87027 6.4181C9.9089 6.4377 9.95399 6.4607 10 6.5C10.0662 6.5566 10.0428 6.6717 10.0195 6.7861C10.0039 6.8629 9.98835 6.9393 10 6.9976C10.02 7.0976 10.25 7.28 10.34 7.28C10.51 7.56 10 8 9.5 8C9.17 8 9.01 7.56 9.18 7.34C9.18884 7.3286 9.20194 7.3135 9.21736 7.2958C9.28281 7.2204 9.39 7.0971 9.39 7C9.39 6.89 9.34 6.78 9.29 6.78C9.07 6.78 9.02 6.67 9 6.5C8.99 6.39 8.98 6.05 9.07 6Z" fill="#184A9B"/>
<path d="M19 10C19 10 19.0147 10.4496 19 10.5C18.9423 10.6974 18.8167 10.6937 18.8167 10.6937C18.6464 10.7297 18.4382 10.7141 18.23 10.61C18.0776 10.5371 17.9907 10.5756 17.8129 10.6543C17.7852 10.6666 17.7553 10.6798 17.7227 10.6937C17.7042 10.7016 16.9961 10.561 17 10.5C16.9 10.37 16.8028 10.1367 16.7734 10C16.753 9.8734 16.7734 9.5755 17 9.5C17.0656 9.4781 17.3013 9.4881 17.4668 9.4952C17.5283 9.4978 17.5802 9.5 17.61 9.5C17.61 9.5 17.6584 9.5121 17.7326 9.5294C17.9614 9.5827 18.4313 9.692 18.44 9.72C18.4868 9.8527 18.6982 9.9123 18.8696 9.9606C18.9177 9.9742 18.9627 9.9868 19 10Z" fill="#184A9B"/>
<path fill-rule="evenodd" clip-rule="evenodd" d="M27 0H0V17H27V0ZM19.5018 11C19.8228 10.2304 20 9.3859 20 8.5C20 4.91015 17.0899 2 13.5 2C11.714 2 10.0962 2.72035 8.92132 3.88636C7.73475 5.064 7 6.6962 7 8.5C7 12.0899 9.91015 15 13.5 15C16.2039 15 18.5223 13.349 19.5018 11Z" fill="#184A9B"/>
<path d="M9.77998 6.1527C9.90396 5.6595 9.30013 5.8849 9.06998 6C8.97998 6.05 8.98998 6.39 8.99998 6.5C9.01998 6.67 9.06998 6.78 9.28998 6.78C9.33998 6.78 9.38998 6.89 9.38998 7C9.38998 7.12 9.22634 7.28 9.17998 7.34C9.00998 7.56 9.16998 8 9.49998 8C9.99998 8 10.51 7.56 10.34 7.28C10.25 7.28 10.02 7.0976 9.99998 6.9976C9.97098 6.8526 10.1106 6.5945 9.99998 6.5C9.84367 6.3664 9.69799 6.4221 9.77998 6.1527Z" fill="#FFCC00"/>
<path fill-rule="evenodd" clip-rule="evenodd" d="M20 8.5C20 9.3859 19.8228 10.2304 19.5018 11C18.5223 13.349 16.2039 15 13.5 15C9.91015 15 7 12.0899 7 8.5C7 6.6962 7.73475 5.064 8.92132 3.88636C10.0962 2.72035 11.714 2 13.5 2C17.0899 2 20 4.91015 20 8.5ZM13 2.77144C10.0585 3.02481 7.75 5.4928 7.75 8.5C7.75 10.0131 8.33449 11.3898 9.29 12.4165C9.29 12.4165 10.7757 12.3856 11.5 12.5C11.81 12.54 12.48 12.19 12.72 12.17C12.85 12.09 13.12 11.97 13.17 12.11C13.1881 12.1715 13.214 12.2173 13.2346 12.2536C13.2708 12.3175 13.2902 12.3517 13.22 12.39C12.7 12.65 13.38 13.18 13.72 13.11C14 13.06 14.22 13.06 14.22 13.22C14.22 13.44 14.33 13.49 14.52 13.54C14.9255 13.6589 15.1556 13.4037 15.3383 13.2011C15.4936 13.0289 15.6146 12.8946 15.78 13.06C15.91 13.19 16.38 13.3 16.61 13.33L16.6178 13.3321C17.1482 12.9892 17.6185 12.5614 18.0095 12.0679C18.0097 11.9252 18.0065 11.7826 18 11.64C17.62 11.54 17.13 11.52 16.94 11.61C16.84 11.67 16.5 11.56 16.34 11.44L16.3068 11.4202C16.2308 11.375 16.1976 11.3552 16.18 11.32C16.1625 11.285 16.0664 11.2683 15.9327 11.2452C15.6846 11.2023 15.3069 11.1369 15.06 10.89C14.88 10.71 14.87 10.56 14.89 10.5C14.93 10.4 14.92 10.19 14.61 10.06C14.4459 9.9935 14.2739 9.8325 14.1045 9.6739C13.892 9.475 13.6836 9.28 13.5 9.28C13.24 9.28 11.94 9.56 12 9.78C12 9.91 11.39 9.98 11.28 10C10.8962 10.14 11.28 10.7715 11 11C10.7612 11 10.5 11 10.5 11C10 11 9.55401 10.8122 9.5 10.5C9.45469 10.2381 9.5 9.7421 9.78 9.5L11 9C11.0071 9 11.28 8.6406 11.28 8.12C11.3034 8.0106 11.301 7.9079 11.39 7.83C11.61 7.66 11.69 7.48 11.77 7.3L11.83 7.17C11.9252 6.971 12.275 6.9891 12.4387 6.9976C12.4642 6.9989 12.4852 7 12.5 7H13.5C13.5 7 13.5 6.5 14 6.5C14.1586 6.517 15 6 15 6C15 5.7206 15.1916 5 15.5 5C15.6112 5 15.7035 5.0095 15.7781 5.0171C15.8913 5.0287 15.9638 5.0362 16 5C16.1705 4.99147 16.1621 4.50175 16 4.5C15.5 4.5 15 4.67 15 4.67V4C15 3.79533 15.0035 2.98755 15.0019 2.99303C14.9091 3.32733 14.617 3.59693 14.3616 3.81418C14.1082 4.02953 13.9832 4.16471 14 4.5C14.0265 5.0286 14 5.5 14 5.5C13.7756 5.687 13.4904 6.1313 13.3027 5.8354C13.2048 5.6811 13.104 5.5221 13.17 5.39C13.22 5.28 13.11 5.11 13 5.06C12.9369 5.025 12.8444 5.1397 12.7362 5.2738C12.5356 5.5226 12.2809 5.8383 12.06 5.39C12 5.28 11.94 5.11 12 5V4.5C12 4.22386 12.2239 4 12.5 4C12.7362 4 13 3.65503 13 3.5C13 3.26069 13 3.12445 13 2.77144ZM19 10.5C19.0147 10.4496 19 10 19 10C18.83 9.94 18.5 9.89 18.44 9.72C18.4284 9.683 17.608 9.5031 17.61 9.5C17.5 9.5 17.09 9.47 17 9.5C16.7734 9.5755 16.753 9.8734 16.7734 10C16.8028 10.1367 16.9 10.37 17 10.5C16.9961 10.561 17.7042 10.7016 17.7227 10.6937C17.9652 10.5903 18.0538 10.5258 18.23 10.61C18.4382 10.7141 18.6464 10.7297 18.8167 10.6937C18.8167 10.6937 18.9423 10.6974 19 10.5Z" fill="#FFCC00"/>
</g>
<defs>
<clipPath id="clip0_48_2200">
<rect width="27" height="17" fill="white"/>
</clipPath>
</defs>
</svg>
