<svg width="27" height="17" viewBox="0 0 27 17" fill="none" xmlns="http://www.w3.org/2000/svg">
<g clip-path="url(#clip0_48_1960)">
<path d="M12 0H27V6H14.4003C13.8734 4.96923 13.0308 4.12663 12 3.59971V0Z" fill="#DD0000"/>
<path d="M7 0H0V6H4.59971C5.12663 4.96923 5.96923 4.12663 7 3.59971V0Z" fill="#DD0000"/>
<path d="M0 11V17H7V13.4003C5.96923 12.8734 5.12663 12.0308 4.59971 11H0Z" fill="#DD0000"/>
<path d="M12 17H27V11H14.4003C13.8734 12.0308 13.0308 12.8734 12 13.4003V17Z" fill="#DD0000"/>
<path d="M11 0H12V3.59971C13.0308 4.12663 13.8734 4.96923 14.4003 6H27V7H13.7439C13.292 5.7214 12.2786 4.70799 11 4.25606V0Z" fill="white"/>
<path d="M8 0H7V3.59971C5.96923 4.12663 5.12663 4.96923 4.59971 6H0V7H5.25606C5.70799 5.7214 6.72138 4.70799 8 4.25606V0Z" fill="white"/>
<path d="M0 10V11H4.59971C5.12663 12.0308 5.96923 12.8734 7 13.4003V17H8V12.7439C6.72138 12.292 5.70799 11.2786 5.25606 10H0Z" fill="white"/>
<path d="M11 17H12V13.4003C13.0308 12.8734 13.8734 12.0308 14.4003 11H27V10H13.7439C13.292 11.2786 12.2786 12.292 11 12.7439V17Z" fill="white"/>
<path fill-rule="evenodd" clip-rule="evenodd" d="M13 8.5C13 10.433 11.433 12 9.5 12C7.567 12 6 10.433 6 8.5C6 6.567 7.567 5 9.5 5C11.433 5 13 6.567 13 8.5ZM8 6L9.5 8.5L7 7V10L9.5 8.5L8 11H11L9.5 8.5L12 10V7L9.5 8.5L11 6H8Z" fill="white"/>
<path fill-rule="evenodd" clip-rule="evenodd" d="M8 0H11V4.25606C12.2786 4.70799 13.292 5.7214 13.7439 7H27V10H13.7439C13.292 11.2786 12.2786 12.292 11 12.7439V17H8V12.7439C6.72138 12.292 5.70799 11.2786 5.25606 10H0V7H5.25606C5.70799 5.7214 6.72138 4.70799 8 4.25606V0ZM13 8.5C13 10.433 11.433 12 9.5 12C7.567 12 6 10.433 6 8.5C6 6.567 7.567 5 9.5 5C11.433 5 13 6.567 13 8.5Z" fill="black"/>
<path d="M8 6L9.5 8.5L11 6H8Z" fill="black"/>
<path d="M11 11L9.5 8.5L8 11H11Z" fill="black"/>
<path d="M12 7L9.5 8.5L12 10V7Z" fill="black"/>
<path d="M7 10L9.5 8.5L7 7V10Z" fill="black"/>
</g>
<defs>
<clipPath id="clip0_48_1960">
<rect width="27" height="17" fill="white"/>
</clipPath>
</defs>
</svg>
