<svg width="27" height="17" viewBox="0 0 27 17" fill="none" xmlns="http://www.w3.org/2000/svg">
<g clip-path="url(#clip0_48_2120)">
<path d="M27 0H18V17H27V0Z" fill="#CC0000"/>
<path d="M9 0H0V17H9V0Z" fill="#449116"/>
<path d="M15.7507 4.66543C15.7396 4.81332 15.6363 4.97893 15.4806 5.1268C15.425 4.98272 15.2303 4.86348 14.9552 4.7731C14.9679 4.71564 14.9905 4.64673 15.013 4.57833C15.0462 4.4773 15.079 4.37734 15.079 4.31707C15.079 4.25269 15.0694 4.19568 15.0519 4.14536C15.1602 4.13843 15.2658 4.141 15.3654 4.16513C15.7399 4.25585 15.7618 4.51768 15.7507 4.66543Z" fill="white"/>
<path d="M14.7588 4.2654C14.7772 4.40656 14.6843 4.58265 14.6139 4.68363C14.3415 4.62695 14.0287 4.59127 13.7089 4.57888C13.7297 4.38824 13.7597 4.18907 13.8014 4.00717C13.9516 4.10082 14.1516 4.18923 14.3628 4.20261C14.4845 4.21021 14.6116 4.1966 14.7392 4.18037C14.748 4.20531 14.7546 4.23351 14.7588 4.2654Z" fill="white"/>
<path d="M13.2699 4.00812C13.3112 4.18842 13.341 4.38564 13.3617 4.57467C13.0393 4.57942 12.7224 4.60859 12.4452 4.66451C12.377 4.56149 12.2961 4.39802 12.3134 4.2654C12.3176 4.23348 12.3242 4.20525 12.333 4.18029C12.4608 4.19656 12.5881 4.21022 12.71 4.20261C12.9205 4.18927 13.1199 4.10141 13.2699 4.00812Z" fill="white"/>
<path d="M11.9932 4.31707C11.9932 4.37735 12.026 4.47727 12.0592 4.5783C12.0789 4.63845 12.0988 4.69906 12.112 4.75185C11.8544 4.8383 11.6616 4.95764 11.5777 5.1129C11.4302 4.96857 11.3328 4.80869 11.3221 4.66543C11.311 4.51768 11.3329 4.25585 11.7074 4.16513C11.8068 4.14104 11.9122 4.13844 12.0203 4.14532C12.0028 4.19565 11.9932 4.25267 11.9932 4.31707Z" fill="white"/>
<path fill-rule="evenodd" clip-rule="evenodd" d="M9 0H18V17H9V0ZM13.2624 3.6966C13.2584 3.67783 13.2563 3.65836 13.2563 3.6384C13.2563 3.48349 13.3819 3.35791 13.5368 3.35791C13.6917 3.35791 13.8173 3.48349 13.8173 3.6384C13.8173 3.65859 13.8152 3.67828 13.8111 3.69726C13.9046 3.74524 14.0726 3.82239 14.187 3.82239C14.2343 3.82239 14.2802 3.82 14.3258 3.81764C14.4405 3.81169 14.553 3.80586 14.6783 3.83832C14.7889 3.86702 14.8919 3.9182 14.9657 3.99966C15.1355 3.9771 15.3097 3.96377 15.4932 4.00295C15.7414 4.05594 16.0008 4.2656 15.9565 4.67137C15.9372 4.8476 15.7404 5.1489 15.4581 5.274L15.0427 5.8934H15.0355L14.9209 6.2371C13.7888 5.8597 12.5472 6.081 12.079 6.2371L11.9209 5.7628L11.9487 5.7536L11.6278 5.2764L11.6252 5.2785C11.3373 5.1564 11.1358 4.84978 11.1163 4.67137C11.072 4.2656 11.3314 4.05594 11.5796 4.00295C11.7628 3.96381 11.937 3.97707 12.1065 3.99959C12.1803 3.91817 12.2833 3.86701 12.3939 3.83832C12.5191 3.80586 12.6316 3.81169 12.7463 3.81764C12.7919 3.82 12.8379 3.82239 12.8851 3.82239C13.0001 3.82239 13.1692 3.74453 13.2624 3.6966ZM10 6.25L10.2071 6.4571C10.3555 6.6055 10.4524 6.7957 10.4864 7C10.4954 7.0539 10.5 7.1088 10.5 7.1642V11.75C10.5 12.3023 10.9477 12.75 11.5 12.75H12.5858C12.8508 12.75 13.105 12.8552 13.2925 13.0425L13.5 13.25L13.7071 13.0429C13.8946 12.8554 14.149 12.75 14.4142 12.75H15.5C16.0523 12.75 16.5 12.3023 16.5 11.75V7.1642C16.5 7.1088 16.5046 7.0539 16.5136 7C16.5476 6.7957 16.6445 6.6055 16.7929 6.4571L17 6.25H10Z" fill="white"/>
<path d="M10.793 6.5H16.2071C16.2071 8.25 16.2071 10 16.2071 11.75C16.2071 12.3023 15.7591 12.5 15.2069 12.5C13.9712 12.5 12.7356 12.5 11.5 12.5C10.9477 12.5 10.793 12.3023 10.793 11.75C10.793 10 10.793 8.25 10.793 6.5Z" fill="#CC0000"/>
<path d="M14 7H13V9H11V10H13V12.25H14V10H16V9H14V7Z" fill="white"/>
<path fill-rule="evenodd" clip-rule="evenodd" d="M10 6.25L10.2071 6.4571C10.3555 6.6055 10.4524 6.7957 10.4864 7C10.4954 7.0539 10.5 7.1088 10.5 7.1642V11.75C10.5 12.3023 10.9477 12.75 11.5 12.75H12.5858C12.8508 12.75 13.105 12.8552 13.2925 13.0425C13.2923 13.0423 13.2926 13.0426 13.2925 13.0425L13.5 13.25L13.7071 13.0429C13.8946 12.8554 14.149 12.75 14.4142 12.75H15.5C16.0523 12.75 16.5 12.3023 16.5 11.75V7.1642C16.5 7.1088 16.5046 7.0539 16.5136 7C16.5476 6.7957 16.6445 6.6055 16.7929 6.4571L17 6.25H10ZM11.2423 7C11.2474 7.0544 11.25 7.1092 11.25 7.1642V11.75C11.25 11.8881 11.3619 12 11.5 12H12.5858C12.9111 12 13.2271 12.0906 13.5 12.2578C13.7729 12.0906 14.0889 12 14.4142 12H15.5C15.6381 12 15.75 11.8881 15.75 11.75V7.1642C15.75 7.1092 15.7526 7.0544 15.7577 7H11.2423Z" fill="#485EA7"/>
<path d="M15.0427 5.89341L15.4969 5.21621C15.5078 4.45898 11.872 4.28509 11.5537 5.16631L11.9487 5.75361C12.4989 5.57731 13.8326 5.34731 15.0788 5.76281L15.0353 5.89341H15.0427Z" fill="#CE2B37"/>
<path d="M13.2624 3.6966C13.2584 3.67783 13.2563 3.65836 13.2563 3.6384C13.2563 3.48349 13.3819 3.35791 13.5368 3.35791C13.6917 3.35791 13.8173 3.48349 13.8173 3.6384C13.8173 3.65859 13.8152 3.67828 13.8111 3.69726C13.9046 3.74524 14.0726 3.82239 14.187 3.82239C14.2343 3.82239 14.2802 3.82 14.3258 3.81764C14.4405 3.81169 14.553 3.80586 14.6783 3.83832C14.7889 3.86702 14.8919 3.9182 14.9657 3.99966C15.1355 3.9771 15.3097 3.96377 15.4932 4.00295C15.7414 4.05594 16.0008 4.26561 15.9565 4.67137C15.937 4.84977 15.7355 5.1564 15.4476 5.2785L15.3739 5.219C15.5878 5.0506 15.7373 4.84497 15.7507 4.66543C15.7618 4.51768 15.7399 4.25585 15.3654 4.16513C15.2658 4.141 15.1602 4.13843 15.0519 4.14536C15.0694 4.19568 15.079 4.25269 15.079 4.31707C15.079 4.37734 15.0462 4.47727 15.013 4.5783C14.9704 4.70806 14.9272 4.83964 14.9521 4.89143C14.8637 4.8978 14.7565 4.93514 14.684 4.98788C14.6779 4.97468 14.6719 4.95973 14.6656 4.94379C14.6414 4.88306 14.6116 4.80809 14.5479 4.76237C14.5894 4.73297 14.7848 4.46445 14.7588 4.2654C14.7546 4.23351 14.748 4.20531 14.7392 4.18037C14.6116 4.1966 14.4845 4.21021 14.3628 4.20261C14.1516 4.18923 13.9516 4.10082 13.8014 4.00717C13.7015 4.44229 13.6691 4.97634 13.6691 5.2557H13.402C13.402 4.97654 13.3696 4.44306 13.2699 4.00812C13.1199 4.10141 12.9205 4.18927 12.71 4.20261C12.5881 4.21022 12.4608 4.19656 12.333 4.18029C12.3242 4.20525 12.3176 4.23348 12.3134 4.2654C12.2874 4.46445 12.4827 4.73297 12.5243 4.76237C12.4606 4.80809 12.4308 4.88306 12.4066 4.9438C12.4002 4.95972 12.3943 4.97469 12.3882 4.98788C12.3157 4.93514 12.2084 4.8978 12.1201 4.89143C12.145 4.83964 12.1018 4.70806 12.0592 4.5783C12.026 4.47727 11.9932 4.37735 11.9932 4.31707C11.9932 4.25267 12.0028 4.19565 12.0203 4.14532C11.9122 4.13844 11.8068 4.14104 11.7074 4.16513C11.3329 4.25585 11.311 4.51768 11.3221 4.66543C11.3355 4.84497 11.485 5.0506 11.6989 5.219L11.6252 5.2785C11.3373 5.1564 11.1358 4.84977 11.1163 4.67137C11.072 4.26561 11.3314 4.05594 11.5796 4.00295C11.7629 3.96381 11.937 3.97707 12.1065 3.99959C12.1803 3.91817 12.2833 3.86701 12.3939 3.83832C12.5191 3.80586 12.6316 3.81169 12.7463 3.81764C12.7919 3.82 12.8379 3.82239 12.8851 3.82239C13.0001 3.82239 13.1692 3.74453 13.2624 3.6966Z" fill="#887D40"/>
<path fill-rule="evenodd" clip-rule="evenodd" d="M14.9209 6.23709C13.7888 5.85969 12.5472 6.08099 12.079 6.23709L11.9209 5.76279C12.4527 5.58549 13.8111 5.34009 15.079 5.76279L14.9209 6.23709Z" fill="#BDAC59"/>
</g>
<defs>
<clipPath id="clip0_48_2120">
<rect width="27" height="17" fill="white"/>
</clipPath>
</defs>
</svg>
