<svg width="27" height="17" viewBox="0 0 27 17" fill="none" xmlns="http://www.w3.org/2000/svg">
<g clip-path="url(#clip0_48_1880)">
<path fill-rule="evenodd" clip-rule="evenodd" d="M27 0H0V17H27V0ZM13.5 13.5C16.2614 13.5 18.5 11.2614 18.5 8.5C18.5 5.7386 16.2614 3.5 13.5 3.5C10.7386 3.5 8.5 5.7386 8.5 8.5C8.5 11.2614 10.7386 13.5 13.5 13.5Z" fill="white"/>
<path d="M13.5 13.5C16.2614 13.5 18.5 11.2614 18.5 8.5C18.5 5.73858 16.2614 3.5 13.5 3.5C10.7386 3.5 8.5 5.73858 8.5 8.5C8.5 11.2614 10.7386 13.5 13.5 13.5Z" fill="#BE0026"/>
</g>
<defs>
<clipPath id="clip0_48_1880">
<rect width="27" height="17" fill="white"/>
</clipPath>
</defs>
</svg>
