<svg width="27" height="17" viewBox="0 0 27 17" fill="none" xmlns="http://www.w3.org/2000/svg">
<g clip-path="url(#clip0_155_1716)">
<g clip-path="url(#clip1_155_1716)">
<rect width="27" height="17" fill="#BF5F41"/>
<path d="M6 0H0V16.9902H13.5L13.7653 16L14.5692 13L13.5 9.00983L12.6935 6L11.7887 4.43277L11.5 4.14409L11.25 4.1L11 4.5V4.43277L10.2504 4L10 3.06538H9L7.1547 2L6 0Z" fill="#5080BA"/>
<path d="M14.3927 20.8398L14.1829 20.8592L14.0704 20.723L13.9373 20.7127L13.7009 20.7125L13.7007 19.8783L13.7855 20.0479L13.8959 20.3261L14.1829 20.5523L14.4921 20.6476L14.3927 20.8398ZM14.5109 11.16L14.6407 11.3325L14.7268 11.1404L14.9786 11.1503L15.0143 11.2013L15.4202 11.5929L15.6007 11.6296L15.8705 11.8087L16.0979 11.9039L16.1296 12.0118L15.9122 12.3864L16.1349 12.454L16.3829 12.492L16.5575 12.452L16.7578 12.2622L16.7939 12.045L16.9032 11.9981L17.014 12.1397L17.0095 12.3368L16.8236 12.4736L16.6753 12.5752L16.4261 12.8188L16.1315 13.1648L16.0764 13.3702L16.0173 13.6365L16.0194 13.8974L15.9715 13.9561L15.9544 14.1274L15.9393 14.2667L16.2197 14.4972L16.1895 14.6845L16.3275 14.8037L16.3163 14.9381L16.1041 15.2952L15.7767 15.4464L15.3339 15.5055L15.0913 15.4769L15.1378 15.6466L15.0925 15.8618L15.1333 16.008L15.0008 16.1107L14.7746 16.1512L14.5623 16.0447L14.4771 16.1212L14.5078 16.4144L14.6569 16.5041L14.7778 16.4101L14.8436 16.5652L14.6403 16.6585L14.463 16.8468L14.4305 17.1556L14.3783 17.3221L14.1697 17.323L13.9966 17.4838L13.9333 17.7219L14.1505 17.9574L14.3616 18.0231L14.2856 18.3173L14.0248 18.505L13.8813 18.9018L13.6798 19.0376L13.5893 19.2001L13.6606 19.5665L13.8076 19.7744L13.7145 19.7562L13.5099 19.6997L12.9763 19.6517L12.8848 19.4438L12.889 19.1808L12.742 19.2032L12.6643 19.0772L12.645 18.7141L12.8144 18.5657L12.8844 18.3541L12.8587 18.1872L12.9758 17.9092L13.0564 17.4866L13.0327 17.3024L13.1291 17.2434L13.1055 17.1266L13.0031 17.0648L13.0758 16.936L12.9762 16.8204L12.9246 16.473L13.0134 16.4124L12.9761 16.0533L13.028 15.7567L13.087 15.5019L13.2192 15.3992L13.1521 15.1254L13.1514 14.871L13.3186 14.692L13.3134 14.4652L13.4394 14.2031L13.44 13.9589L13.3827 13.9107L13.281 13.4601L13.417 13.1955L13.3961 12.949L13.475 12.7197L13.6196 12.4852L13.7754 12.3308L13.7094 12.2338L13.7555 12.1545L13.7485 11.7473L13.989 11.6278L14.0648 11.3777L14.038 11.3177L14.222 11.102L14.5109 11.16Z" fill="#D2C330"/>
<path d="M11.7354 0.756916L11.6812 0.768915L11.6251 0.629663L11.5425 0.559455L11.5905 0.404968L11.6569 0.414802L11.7342 0.616614L11.7354 0.756916ZM11.6724 0.0687653L11.4317 0.108242L11.4163 0.0168684L11.52 -0.00292601L11.6658 0.00449832L11.6724 0.0687653ZM11.8534 0.0662983L11.8153 0.241274L11.7748 0.209801L11.7784 0.0811083L11.6795 -0.0165817L11.679 -0.0450358L11.8534 0.0662983Z" fill="#D2C330"/>
<path d="M9.1722 2.16329L9.17047 2.12915L9.1972 2.11846L9.23728 2.14592L9.31637 2.00563L9.35835 2.00257L9.35916 2.03671L9.40101 2.03778L9.39733 2.10101L9.36159 2.20135L9.3809 2.23717L9.35777 2.31992L9.37171 2.34201L9.34611 2.45854L9.30275 2.51961L9.26287 2.52693L9.21911 2.60651L9.1532 2.60659L9.17049 2.34674L9.1722 2.16329Z" fill="#D2C330"/>
<path d="M14.9787 11.1503L14.7269 11.1404L14.6407 11.3326L14.5109 11.16L14.222 11.102L14.038 11.3177L13.8787 11.3505L13.7922 11.0217L13.6735 10.7566L13.7431 10.5294L13.6273 10.4304L13.5978 10.2623L13.4896 10.1044L13.6288 9.85516L13.5339 9.662L13.5845 9.58498L13.545 9.50016L13.6312 9.38613L13.6356 9.19245L13.6464 9.033L13.6939 8.95639L13.503 8.59336L13.6671 8.6124L13.7808 8.60748L13.8301 8.53948L14.0232 8.44847L14.1395 8.36425L14.4284 8.3263L14.4049 8.49441L14.4321 8.5808L14.4143 8.73171L14.6541 8.93392L14.9014 8.97126L14.9882 9.05586L15.1375 9.10078L15.2289 9.16668L15.3678 9.16445L15.496 9.23183L15.5058 9.36341L15.5488 9.43L15.5517 9.52852L15.4873 9.53234L15.5722 9.79937L15.9955 9.80887L15.9631 9.94193L15.9868 10.0331L16.1074 10.098L16.1595 10.2423L16.1203 10.4257L16.0598 10.5282L16.081 10.6618L16.012 10.7104L16.0083 10.638L15.8026 10.5181L15.5975 10.5148L15.2127 10.5829L15.1068 10.7898L15.1013 10.9168L15.0143 11.2013L14.9787 11.1503Z" fill="#D2C330"/>
<path d="M16.1315 13.1649L16.4261 12.8188L16.6753 12.5752L16.8236 12.4737L17.0095 12.3368L17.014 12.1397L16.9033 11.9981L16.7939 12.045L16.8373 11.9039L16.8672 11.76L16.8673 11.6268L16.7878 11.583L16.705 11.622L16.6227 11.6113L16.5969 11.5185L16.5763 11.2985L16.535 11.2271L16.3859 11.1625L16.2957 11.2092L16.0626 11.1634L16.0773 10.8415L16.012 10.7104L16.0811 10.6618L16.0598 10.5282L16.1203 10.4257L16.1595 10.2423L16.1074 10.098L15.9868 10.0331L15.9631 9.94193L15.9955 9.80887L15.5722 9.79937L15.4873 9.53234L15.5517 9.52852L15.5488 9.43L15.5058 9.36342L15.496 9.23183L15.3678 9.16445L15.2289 9.16668L15.1375 9.10078L14.9882 9.05586L14.9014 8.97126L14.6541 8.93392L14.4143 8.73171L14.4321 8.5808L14.4049 8.49441L14.4284 8.3263L14.1395 8.36425L14.0232 8.44847L13.8301 8.53948L13.7808 8.60748L13.6672 8.6124L13.503 8.59336L13.3784 8.6321L13.278 8.60627L13.2927 8.26542L13.1116 8.39746L12.9167 8.39167L12.8332 8.27215L12.6867 8.25917L12.7333 8.16311L12.6106 8.02721L12.5187 7.8264L12.577 7.78569L12.5768 7.69169L12.7102 7.62751L12.6882 7.50737L12.7446 7.43013L12.7606 7.32661L13.0131 7.17577L13.194 7.13316L13.2236 7.09987L13.4226 7.11026L13.5219 6.50399L13.5271 6.40821L13.4925 6.28176L13.3946 6.2012L13.3957 6.04077L13.52 6.00439L13.5642 6.02725L13.5717 5.94267L13.4423 5.91983L13.4395 5.78163L13.8698 5.78657L13.9428 5.71041L14.0041 5.78048L14.0472 5.91077L14.0888 5.88355L14.2104 6.00035L14.3821 5.98604L14.4248 5.91846L14.589 5.86691L14.6799 5.83066L14.7056 5.7371L14.8633 5.67423L14.8514 5.62779L14.6643 5.6088L14.6337 5.46957L14.6426 5.32127L14.5438 5.26389L14.5851 5.24352L14.7486 5.27184L14.9242 5.32716L14.9879 5.27485L15.1467 5.2405L15.3937 5.15761L15.4744 5.07305L15.4452 5.0105L15.56 5.0007L15.6114 5.05178L15.5827 5.14908L15.6585 5.18262L15.7092 5.28551L15.6479 5.36347L15.6128 5.55172L15.6693 5.66346L15.6853 5.7657L15.8212 5.86934L15.9295 5.8803L15.9539 5.83704L16.0237 5.82749L16.1236 5.78875L16.1954 5.72999L16.3176 5.74873L16.3713 5.74082L16.4913 5.7589L16.5112 5.71376L16.4742 5.66984L16.4963 5.60585L16.5854 5.62549L16.6896 5.60289L16.8161 5.64972L16.9125 5.6953L16.9809 5.63538L17.0303 5.64462L17.0604 5.70683L17.1661 5.69103L17.2507 5.6071L17.3185 5.44429L17.4491 5.2418L17.5244 5.23134L17.579 5.35375L17.7028 5.74037L17.8209 5.77684L17.8269 5.9293L17.6608 6.11108L17.7295 6.17764L18.1198 6.21232L18.1277 6.43365L18.2955 6.28875L18.5733 6.36811L18.94 6.50299L19.0478 6.63245L19.0116 6.75479L19.2683 6.68667L19.6981 6.80358L20.0279 6.79497L20.3543 6.978L20.6363 7.22606L20.8064 7.28999L20.9953 7.29888L21.0753 7.36883L21.1502 7.65158L21.1869 7.78618L21.0989 8.15497L20.9866 8.30106L20.6754 8.61338L20.5347 8.8682L20.3712 9.06435L20.316 9.06878L20.2543 9.23579L20.27 9.66359L20.2085 10.0184L20.185 10.1711L20.1152 10.2628L20.076 10.5748L19.8522 10.8821L19.8146 11.127L19.6359 11.2303L19.5842 11.3738L19.3443 11.3732L18.997 11.4655L18.8415 11.5727L18.5942 11.6432L18.3343 11.8364L18.1474 12.0788L18.1153 12.2627L18.152 12.3994L18.1107 12.6513L18.0606 12.7738L17.9063 12.9127L17.6613 13.3619L17.4672 13.5671L17.317 13.6889L17.2164 13.9385L17.0703 14.0899L17.0091 13.9399L17.1065 13.8151L16.9788 13.6372L16.8056 13.4936L16.5784 13.3283L16.4963 13.3358L16.2749 13.1376L16.1315 13.1649ZM17.2507 5.6071L17.1661 5.69103L17.0604 5.70683L17.0303 5.64462L16.9809 5.63538L16.9125 5.6953L16.8161 5.64972L16.8721 5.55537L16.8913 5.45467L16.9294 5.35991L16.8438 5.22932L16.8263 5.07778L16.9412 4.88711L17.0162 4.91153L17.1788 4.96403L17.4126 5.15112L17.4491 5.2418L17.3185 5.44429L17.2507 5.6071Z" fill="#D2C330"/>
<path d="M13.7007 19.8783L13.7008 20.7125L13.9373 20.7127L14.0703 20.723L13.9972 20.8791L13.8079 21L13.6994 20.9876L13.5686 20.956L13.4083 20.8392L13.177 20.7834L12.8992 20.5695L12.6737 20.3664L12.3696 19.9517L12.5516 20.0286L12.8616 20.2758L13.1545 20.4103L13.2684 20.2387L13.34 19.986L13.5436 19.8354L13.7007 19.8783ZM13.7921 11.0217L13.8786 11.3505L14.0379 11.3177L14.0647 11.3777L13.989 11.6278L13.7485 11.7473L13.7554 12.1545L13.7093 12.2338L13.7754 12.3308L13.6196 12.4852L13.475 12.7198L13.3961 12.949L13.417 13.1955L13.2809 13.4601L13.3826 13.9107L13.44 13.9589L13.4394 14.2031L13.3134 14.4652L13.3185 14.692L13.1514 14.871L13.1521 15.1254L13.2192 15.3992L13.087 15.502L13.028 15.7567L12.9761 16.0534L13.0134 16.4124L12.9246 16.4731L12.9761 16.8204L13.0758 16.936L13.003 17.0648L13.1054 17.1266L13.1291 17.2434L13.0327 17.3024L13.0564 17.4866L12.9757 17.9092L12.8587 18.1873L12.8843 18.3541L12.8143 18.5658L12.6449 18.7141L12.6642 19.0772L12.742 19.2033L12.889 19.1808L12.8847 19.4439L12.9763 19.6517L13.5098 19.6997L13.7145 19.7562L13.518 19.7535L13.4117 19.8425L13.2125 19.9742L13.1769 20.3199L13.0834 20.3286L12.8343 20.2073L12.5815 19.9508L12.3068 19.7429L12.2376 19.5161L12.3002 19.309L12.1891 19.0771L12.1608 18.4971L12.2547 18.1785L12.4879 17.9268L12.1528 17.8328L12.363 17.5508L12.4382 17.0327L12.6836 17.1413L12.799 16.5114L12.6508 16.4321L12.5818 16.8074L12.4426 16.7647L12.5119 16.3363L12.5872 15.7953L12.6886 15.5994L12.625 15.3231L12.6068 15.0086L12.6998 14.9996L12.8353 14.557L12.988 14.1273L13.0815 13.7342L13.0306 13.3455L13.0966 13.1341L13.0701 12.821L13.1992 12.5149L13.239 12.0369L13.3099 11.5322L13.3789 10.9978L13.3628 10.6117L13.3168 10.2827L13.4303 10.2233L13.4895 10.1044L13.5977 10.2623L13.6272 10.4304L13.743 10.5294L13.6735 10.7566L13.7921 11.0217Z" fill="#D2C330"/>
<path d="M12.2127 6.19388L12.1181 6.14158L12.0097 6.06844L11.947 6.10358L11.7596 6.07294L11.7059 5.97794L11.6647 5.98147L11.4438 5.85537L11.4139 5.78679L11.4963 5.77022L11.4865 5.65954L11.5383 5.57949L11.6478 5.56467L11.7408 5.42572L11.8253 5.30966L11.7439 5.25698L11.7856 5.12846L11.7357 4.92565L11.7831 4.86739L11.7482 4.67952L11.6588 4.56103L11.6871 4.45279L11.7583 4.46878L11.7999 4.40254L11.7487 4.27114L11.7755 4.23848L11.8895 4.24558L12.0552 4.08952L12.1461 4.0657L12.1483 3.99163L12.189 3.80206L12.3156 3.69773L12.4548 3.69346L12.4723 3.64654L12.6451 3.66533L12.8189 3.55156L12.9049 3.50112L13.0118 3.39229L13.09 3.40614L13.148 3.46557L13.1051 3.54156L12.9633 3.57936L12.9073 3.69196L12.8218 3.75645L12.7576 3.83994L12.7306 3.99997L12.6694 4.13087L12.7833 4.14585L12.8117 4.24858L12.8604 4.2977L12.8778 4.38753L12.8516 4.47002L12.8594 4.51651L12.9137 4.53507L12.9663 4.61269L13.2502 4.5913L13.3785 4.61964L13.5339 4.81089L13.6232 4.78714L13.7822 4.79903L13.908 4.7737L13.9861 4.81186L13.9464 4.93141L13.8971 5.00587L13.8798 5.1648L13.9242 5.3119L13.987 5.37765L13.9946 5.42717L13.8827 5.53725L13.9628 5.58596L14.0215 5.66323L14.0888 5.88354L14.0472 5.91076L14.0041 5.78047L13.9428 5.7104L13.8697 5.78656L13.4395 5.78162L13.4423 5.91982L13.5716 5.94266L13.5642 6.02724L13.52 6.00438L13.3957 6.04076L13.3945 6.20119L13.4925 6.28175L13.5271 6.4082L13.5219 6.50398L13.4226 7.11025L13.3121 6.99258L13.2462 6.98734L13.3886 6.76226L13.2195 6.65876L13.087 6.67775L13.0072 6.63952L12.8856 6.69795L12.7212 6.67027L12.5911 6.43865L12.4889 6.38175L12.4184 6.27752L12.2715 6.17294L12.2127 6.19388Z" fill="#D2C330"/>
<path d="M10.5362 4.33792L10.4164 4.2884L10.3715 4.24153L10.397 4.20274L10.3889 4.15336L10.3277 4.09981L10.2408 4.05583L10.1648 4.02712L10.1503 3.96159L10.0924 3.92153L10.1066 3.9867L10.0625 4.04022L10.0121 3.97806L9.94112 3.95592L9.91095 3.91072L9.91221 3.8424L9.94145 3.77164L9.87909 3.73996L9.92969 3.69651L9.96297 3.66755L10.1084 3.72714L10.1592 3.69781L10.2292 3.71658L10.2658 3.76285L10.331 3.77782L10.3839 3.73018L10.4398 3.85226L10.5252 3.94255L10.6288 4.03819L10.5435 4.05818L10.5447 4.14823L10.5906 4.18146L10.5576 4.20793L10.5662 4.24835L10.5478 4.29362L10.5362 4.33792Z" fill="#D2C330"/>
<path d="M10.6903 0.894417L10.881 0.911548L11.0544 0.914258L11.2618 0.995937L11.3497 1.08349L11.556 1.0565L11.6342 1.11261L11.8211 1.26007L11.9586 1.36706L12.0313 1.36381L12.163 1.41208L12.1469 1.47861L12.3097 1.48833L12.4766 1.5848L12.4504 1.6399L12.3036 1.66973L12.1549 1.68139L12.0028 1.66281L11.6867 1.68569L11.8347 1.55449L11.7447 1.49324L11.6024 1.47746L11.5261 1.40924L11.4737 1.27426L11.3489 1.28351L11.143 1.21979L11.0768 1.16986L10.789 1.13292L10.7119 1.08638L10.7947 1.02665L10.5781 1.01441L10.4195 1.13853L10.328 1.14186L10.2963 1.19998L10.1871 1.22599L10.0926 1.20344L10.2091 1.12985L10.257 1.04369L10.3568 0.990474L10.4696 0.943758L10.6368 0.920794L10.6903 0.894417Z" fill="#D2C330"/>
<path d="M13.021 1.71877L13.0486 1.67877L13.221 1.67985L13.3518 1.74024L13.41 1.73435L13.45 1.81743L13.5708 1.81277L13.5637 1.88243L13.662 1.89086L13.7705 1.97643L13.6885 2.07116L13.5835 2.02057L13.4821 2.03033L13.4095 2.01926L13.3697 2.06168L13.2849 2.07601L13.2513 2.01959L13.1783 2.05299L13.0899 2.21191L13.0331 2.17506L13.0219 2.10837L13.0264 2.04523L12.9696 1.97534L13.0234 1.93606L13.0403 1.8463L13.021 1.71877Z" fill="#D2C330"/>
<path d="M11.1242 6.91257L11.2418 6.74732L11.194 6.6508L11.1096 6.75343L10.9774 6.65658L11.0222 6.59429L10.9849 6.39382L11.0622 6.36052L11.1029 6.22296L11.1864 6.08076L11.171 5.99064L11.292 5.94327L11.4438 5.85538L11.6647 5.98148L11.7058 5.97795L11.7596 6.07295L11.947 6.10359L12.0097 6.06846L12.1181 6.14159L12.2127 6.19389L12.2435 6.36157L12.1747 6.50517L11.934 6.73652L11.6684 6.8237L11.5331 7.01616L11.4914 7.16554L11.3665 7.25668L11.2738 7.14481L11.1847 7.12087L11.0934 7.13851L11.0874 7.05737L11.1504 7.00467L11.1242 6.91257Z" fill="#D2C330"/>
<path d="M8.96191 3.09802L8.84862 3.05836L8.71089 3.05425L8.60991 3.0091L8.49111 2.91507L8.49653 2.84858L8.52215 2.79499L8.49078 2.75224L8.59705 2.56533L8.88045 2.56464L8.88611 2.48632L8.85034 2.47235L8.82584 2.42243L8.74417 2.36915L8.66198 2.29206L8.7617 2.29149L8.76187 2.16113L8.96801 2.16073L9.17222 2.16329L9.17051 2.34673L9.15322 2.60658L9.21913 2.6065L9.29112 2.64801L9.31016 2.61382L9.37493 2.64312L9.27432 2.73054L9.16963 2.79457L9.15408 2.83849L9.17168 2.88331L9.1258 2.94122L9.07412 2.95525L9.08585 2.98209L9.04441 3.00727L8.96873 3.06468L8.96191 3.09802Z" fill="#D2C330"/>
<path d="M15.6605 4.30624L15.8055 4.38829L15.9421 4.53345L15.9483 4.64802L16.0315 4.65329L16.1498 4.76171L16.237 4.83902L16.2017 5.03858L16.0676 5.09641L16.0796 5.14866L16.0389 5.2629L16.1367 5.42359L16.2074 5.42385L16.2364 5.54868L16.3712 5.74081L16.3175 5.74872L16.1954 5.72998L16.1236 5.78874L16.0237 5.82747L15.9539 5.83703L15.9295 5.88029L15.8211 5.86933L15.6853 5.76569L15.6693 5.66345L15.6127 5.55171L15.6479 5.36346L15.7091 5.28549L15.6585 5.18261L15.5826 5.14907L15.6113 5.05177L15.5599 5.00069L15.4451 5.01049L15.2957 4.84215L15.3555 4.78103L15.3511 4.67841L15.487 4.64272L15.5418 4.60105L15.4662 4.51846L15.4855 4.43724L15.6605 4.30624Z" fill="#D2C330"/>
<path d="M9.5755 3.26839L9.53735 3.19746L9.47029 3.17773L9.48566 3.08674L9.45563 3.06212L9.41018 3.04589L9.31333 3.07299L9.30511 3.04236L9.23846 3.00586L9.19089 2.96041L9.12579 2.94124L9.17167 2.88332L9.15408 2.8385L9.16963 2.79459L9.27431 2.73056L9.37493 2.64313L9.39786 2.65209L9.44629 2.61176L9.50947 2.60846L9.52995 2.62718L9.56421 2.61578L9.66679 2.63648L9.76886 2.63049L9.83989 2.6051L9.86579 2.57939L9.93614 2.59128L9.98899 2.60687L10.0467 2.60149L10.0906 2.58157L10.1915 2.61342L10.2265 2.61848L10.2939 2.66136L10.3577 2.71274L10.438 2.74781L10.4961 2.81073L10.4204 2.80605L10.3898 2.83718L10.3132 2.86702L10.2574 2.86717L10.2086 2.89619L10.1644 2.88588L10.1268 2.85099L10.1037 2.85764L10.0754 2.91218L10.0542 2.9102L10.0505 2.95714L9.97344 3.01986L9.93275 3.04693L9.91009 3.07514L9.84496 3.02915L9.7973 3.08985L9.75124 3.08823L9.69949 3.0936L9.70419 3.20527L9.67179 3.20729L9.64414 3.25908L9.5755 3.26839Z" fill="#D2C330"/>
<path d="M12.6948 1.67154L12.8295 1.68192L13.021 1.71877L13.0403 1.8463L13.0234 1.93606L12.9696 1.97534L13.0264 2.04523L13.0219 2.10837L12.8752 2.06888L12.771 2.085L12.6363 2.06819L12.533 2.11162L12.4147 2.03921L12.4342 1.96415L12.6374 1.9965L12.804 2.01519L12.8835 1.96334L12.7827 1.86224L12.7843 1.77288L12.645 1.73634L12.6948 1.67154Z" fill="#D2C330"/>
<path d="M11.7277 2.00476L11.8763 2.02563L11.9936 2.08148L12.0302 2.14506L11.875 2.14939L11.8079 2.18814L11.6843 2.15093L11.5581 2.06631L11.5846 2.01314L11.6774 1.99692L11.7277 2.00476Z" fill="#D2C330"/>
<path d="M7.40652 0.243528L7.32084 0.458158L7.28223 0.633006L7.26609 0.955847L7.24482 1.07272L7.28309 1.2028L7.35156 1.31865L7.39563 1.50212L7.54219 1.67735L7.59374 1.81109L7.68013 1.92612L7.91458 1.98796L8.00585 2.08528L8.19951 2.02029L8.36788 1.99678L8.53321 1.95491L8.67219 1.9149L8.81263 1.81957L8.86524 1.68288L8.88337 1.48511L8.92154 1.41603L9.07109 1.35404L9.30458 1.29904L9.50009 1.30731L9.63401 1.28721L9.68699 1.3375L9.6795 1.45149L9.56084 1.59167L9.50834 1.73469L9.54904 1.7755L9.51596 1.8766L9.46062 2.05845L9.40465 1.99869L9.35842 2.00257L9.31645 2.00563L9.23735 2.14593L9.19727 2.11846L9.17054 2.12915L9.17227 2.16329L8.96806 2.16074L8.76192 2.16114L8.76176 2.2915L8.66203 2.29207L8.74423 2.36916L8.82589 2.42244L8.85039 2.47236L8.88616 2.48633L8.8805 2.56465L8.59711 2.56534L8.49084 2.75225L8.5222 2.795L8.49658 2.84859L8.49117 2.91508L8.24128 2.66888L8.12741 2.59437L7.94713 2.53444L7.82379 2.55114L7.64646 2.63754L7.53516 2.66015L7.37924 2.59967L7.21376 2.55597L7.00739 2.45042L6.84185 2.41813L6.59187 2.31082L6.40715 2.20022L6.35141 2.13829L6.22785 2.12444L6.002 2.0509L5.91003 1.94465L5.67278 1.81208L5.56215 1.66424L5.50952 1.54959L5.58318 1.52658L5.56047 1.45928L5.61123 1.39795L5.61232 1.31602L5.53783 1.20935L5.5179 1.11454L5.44387 0.993903L5.24928 0.75498L5.02727 0.565944L4.91986 0.414237L4.73035 0.314454L4.68974 0.254596L4.7234 0.102585L4.61084 0.0450087L4.4805 -0.0753289L4.42546 -0.249038L4.30669 -0.269369L4.17847 -0.401339L4.075 -0.523806L4.06537 -0.602767L3.94663 -0.794397L3.86842 -0.990443L3.87176 -1.08936L3.71207 -1.19193L3.63836 -1.18065L3.51234 -1.25211L3.47696 -1.14685L3.51349 -1.02304L3.53498 -0.830524L3.6107 -0.725462L3.77456 -0.550872L3.81095 -0.491468L3.84453 -0.47348L3.87367 -0.387108L3.91291 -0.390599L3.95723 -0.229151L4.02428 -0.165734L4.0713 -0.077711L4.21007 0.0483096L4.28334 0.277225L4.34888 0.384385L4.41023 0.498607L4.42236 0.626647L4.52883 0.634651L4.61737 0.744506L4.69747 0.852083L4.69211 0.895131L4.59919 0.983239L4.56007 0.982088L4.50184 0.836134L4.35734 0.698667L4.19813 0.581595L4.0852 0.519907L4.09249 0.341488L4.05899 0.208657L3.95376 0.132402L3.80199 0.0222646L3.77283 0.0540816L3.71714 -0.0103708L3.58095 -0.0703561L3.4508 -0.214808L3.4669 -0.233641L3.55784 -0.219488L3.63977 -0.312834L3.64801 -0.426004L3.47803 -0.605966L3.34846 -0.676152L3.26705 -0.835149L3.18513 -1.00319L3.08286 -1.2096L2.99316 -1.44405L3.24409 -1.46423L3.5245 -1.49268L3.50383 -1.44141L3.83725 -1.31444L4.34098 -1.13166L4.78007 -1.13352L4.95518 -1.13359L4.95561 -1.24051L5.33813 -1.24042L5.41866 -1.14852L5.53156 -1.06688L5.66276 -0.953751L5.73598 -0.820067L5.79092 -0.680113L5.90506 -0.603567L6.08833 -0.52774L6.22744 -0.727894L6.40797 -0.732805L6.56359 -0.631604L6.67438 -0.458709L6.75074 -0.311579L6.88101 -0.169266L6.92959 0.0044972L6.99142 0.120565L7.16364 0.196862L7.32041 0.250886L7.40652 0.243528Z" fill="#D2C330"/>
<path d="M9.92975 3.69652L9.85336 3.62561L9.75016 3.53467L9.70156 3.45859L9.60848 3.38756L9.49786 3.28534L9.52238 3.25029L9.55883 3.2844L9.57555 3.26839L9.6442 3.25908L9.67184 3.20729L9.70424 3.20527L9.69955 3.0936L9.7513 3.08823L9.79735 3.08985L9.84502 3.02915L9.91015 3.07514L9.93281 3.04693L9.97349 3.01986L10.0506 2.95714L10.0542 2.9102L10.0754 2.91218L10.1037 2.85764L10.1268 2.85099L10.1644 2.88588L10.2087 2.89619L10.2575 2.86717L10.3132 2.86702L10.3899 2.83718L10.4205 2.80605L10.4962 2.81073L10.4772 2.83266L10.4659 2.88364L10.4885 2.96709L10.4376 3.04465L10.4139 3.13613L10.4068 3.23613L10.4186 3.29454L10.4242 3.39641L10.3904 3.41862L10.3698 3.51521L10.385 3.57478L10.3398 3.63239L10.3501 3.69324L10.3839 3.73019L10.3311 3.77784L10.2659 3.76287L10.2293 3.7166L10.1593 3.69783L10.1085 3.72715L9.96302 3.66757L9.92975 3.69652Z" fill="#D2C330"/>
<path d="M11.6588 4.56103L11.5852 4.4968L11.5379 4.3765L11.5924 4.31691L11.5365 4.30162L11.4953 4.22784L11.3853 4.16572L11.2887 4.17996L11.2439 4.25768L11.1547 4.31376L11.1066 4.32154L11.0849 4.36797L11.1902 4.48894L11.13 4.51739L11.0981 4.55039L10.9953 4.56174L10.9571 4.4287L10.9284 4.46658L10.8555 4.4535L10.811 4.36381L10.7204 4.34899L10.6631 4.32289L10.5684 4.32323L10.5615 4.37165L10.5362 4.33792L10.5478 4.29362L10.5662 4.24835L10.5576 4.20792L10.5906 4.18145L10.5447 4.14823L10.5435 4.05818L10.6288 4.03818L10.7081 4.11846L10.7036 4.16584L10.7917 4.17589L10.8126 4.1577L10.8733 4.21262L10.9819 4.19647L11.0758 4.14001L11.2099 4.09489L11.2853 4.028L11.4072 4.04114L11.3989 4.06316L11.5221 4.0708L11.6203 4.10945L11.6924 4.17673L11.7754 4.23847L11.7486 4.27113L11.7999 4.40254L11.7583 4.46877L11.6871 4.45278L11.6588 4.56103Z" fill="#D2C330"/>
<path d="M13.4895 10.1044L13.4303 10.2233L13.3168 10.2827L13.0954 10.1493L13.0763 10.0543L12.6385 9.82261L12.2425 9.57163L12.0722 9.43075L11.9808 9.24256L12.017 9.17708L11.83 8.87983L11.6123 8.46437L11.4037 8.01874L11.3134 7.91708L11.2439 7.75303L11.0724 7.60788L10.9151 7.51794L10.9865 7.41887L10.8795 7.20739L10.9482 7.05229L11.1243 6.91256L11.1504 7.00466L11.0874 7.05736L11.0934 7.13849L11.1847 7.12086L11.2739 7.1448L11.3665 7.25667L11.4914 7.16553L11.5332 7.01615L11.6685 6.82369L11.934 6.73651L12.1747 6.50516L12.2435 6.36156L12.2127 6.19388L12.2715 6.17294L12.4184 6.27752L12.4889 6.38175L12.5911 6.43865L12.7211 6.67027L12.8855 6.69795L13.0072 6.63952L13.087 6.67775L13.2195 6.65876L13.3886 6.76226L13.2461 6.98734L13.3121 6.99258L13.4226 7.11025L13.2236 7.09986L13.194 7.13315L13.013 7.17576L12.7605 7.3266L12.7445 7.43012L12.6882 7.50736L12.7102 7.6275L12.5767 7.69168L12.5769 7.78568L12.5187 7.82639L12.6106 8.02719L12.7333 8.1631L12.6866 8.25916L12.8332 8.27214L12.9167 8.39165L13.1115 8.39745L13.2927 8.26541L13.2779 8.60626L13.3784 8.63209L13.5029 8.59335L13.6938 8.95637L13.6464 9.03298L13.6355 9.19244L13.6312 9.38612L13.5449 9.50015L13.5845 9.58497L13.5338 9.66199L13.6288 9.85515L13.4895 10.1044Z" fill="#D2C330"/>
<path d="M14.2199 1.99913L14.3328 2.01964L14.3726 2.06584L14.316 2.12441L14.1498 2.12304L14.0208 2.13123L14.0079 2.03179L14.0392 1.99777L14.2199 1.99913Z" fill="#D2C330"/>
<path d="M15.0142 11.2013L15.1012 10.9168L15.1068 10.7898L15.2127 10.5829L15.5975 10.5148L15.8025 10.5181L16.0082 10.638L16.012 10.7104L16.0773 10.8415L16.0626 11.1634L16.2957 11.2092L16.3858 11.1625L16.5349 11.2271L16.5763 11.2985L16.5968 11.5185L16.6226 11.6113L16.7049 11.622L16.7878 11.583L16.8672 11.6268L16.8671 11.76L16.8372 11.9039L16.7938 12.045L16.7577 12.2622L16.5575 12.452L16.3828 12.492L16.1349 12.454L15.9122 12.3864L16.1296 12.0118L16.0979 11.904L15.8705 11.8088L15.6007 11.6297L15.4202 11.5929L15.0142 11.2013Z" fill="#D2C330"/>
<path d="M9.4703 3.17772L9.44579 3.23114L9.3179 3.22776L9.23843 3.20603L9.14713 3.16091L9.02444 3.14682L8.96191 3.09803L8.96873 3.06469L9.04441 3.00728L9.08586 2.9821L9.07413 2.95526L9.1258 2.94123L9.1909 2.9604L9.23847 3.00586L9.30511 3.04236L9.31334 3.07299L9.41019 3.04589L9.45564 3.06211L9.48567 3.08673L9.4703 3.17772Z" fill="#D2C330"/>
<path d="M16.237 4.83903L16.5015 4.88349L16.5253 4.84348L16.7038 4.82746L16.9412 4.88711L16.8263 5.07778L16.8437 5.22932L16.9304 5.36047L16.8918 5.45564L16.8724 5.55677L16.8161 5.64972L16.6896 5.60289L16.5854 5.62548L16.4962 5.60584L16.4742 5.66984L16.5112 5.71376L16.4913 5.7589L16.3713 5.74082L16.2364 5.54869L16.2074 5.42386L16.1367 5.4236L16.0389 5.26292L16.0796 5.14867L16.0677 5.09642L16.2017 5.03859L16.237 4.83903Z" fill="#D2C330"/>
<path d="M15.2362 3.77037L15.3632 3.74114L15.4095 3.74901L15.4007 3.91631L15.2163 3.94097L15.1766 3.92079L15.2406 3.85909L15.2362 3.77037Z" fill="#D2C330"/>
<path d="M16.1315 13.1649L16.2748 13.1376L16.4962 13.3358L16.5783 13.3283L16.8055 13.4936L16.9787 13.6372L17.1064 13.8151L17.0091 13.9399L17.0702 14.0899L16.9747 14.2574L16.7253 14.4067L16.5623 14.3529L16.4428 14.3817L16.2387 14.2664L16.0889 14.275L15.9544 14.1274L15.9715 13.9561L16.0194 13.8974L16.0173 13.6365L16.0763 13.3702L16.1315 13.1649Z" fill="#D2C330"/>
<path d="M13.1051 3.54157L13.0988 3.59484L12.9692 3.62114L13.0412 3.72329L13.0385 3.84081L12.9411 3.9711L13.0247 4.14871L13.1199 4.13419L13.1695 3.97237L13.101 3.89345L13.0899 3.7234L13.3648 3.63191L13.3342 3.52566L13.4116 3.45444L13.4909 3.61295L13.6458 3.61661L13.7892 3.74211L13.7979 3.81652L13.9961 3.81849L14.232 3.79541L14.3585 3.89595L14.5273 3.92367L14.6512 3.85358L14.6537 3.79703L14.9272 3.78348L15.1918 3.78035L15.0043 3.84669L15.0798 3.9526L15.2563 3.96944L15.4238 4.07957L15.4589 4.25866L15.574 4.25362L15.6605 4.30624L15.4856 4.43725L15.4663 4.51847L15.5419 4.60106L15.487 4.64273L15.3512 4.67842L15.3556 4.78104L15.2958 4.84215L15.4452 5.0105L15.4744 5.07305L15.3937 5.1576L15.1467 5.2405L14.9879 5.27484L14.9242 5.32716L14.7486 5.27184L14.5851 5.24352L14.5437 5.26389L14.6426 5.32126L14.6337 5.46957L14.6643 5.60879L14.8514 5.62779L14.8633 5.67423L14.7056 5.7371L14.6799 5.83065L14.589 5.8669L14.4248 5.91846L14.3821 5.98604L14.2104 6.00035L14.0888 5.88354L14.0215 5.66324L13.9628 5.58597L13.8827 5.53725L13.9946 5.42718L13.987 5.37766L13.9242 5.31191L13.8798 5.1648L13.8971 5.00587L13.9464 4.93141L13.9861 4.81187L13.908 4.7737L13.7822 4.79903L13.6232 4.78714L13.5339 4.81089L13.3785 4.61965L13.2502 4.5913L12.9663 4.6127L12.9137 4.53507L12.8594 4.51651L12.8516 4.47003L12.8778 4.38753L12.8604 4.29771L12.8117 4.24859L12.7834 4.14585L12.6694 4.13087L12.7306 3.99998L12.7576 3.83994L12.8218 3.75645L12.9073 3.69196L12.9633 3.57936L13.1051 3.54157Z" fill="#D2C330"/>
</g>
</g>
<defs>
<clipPath id="clip0_155_1716">
<rect width="27" height="17" fill="white"/>
</clipPath>
<clipPath id="clip1_155_1716">
<rect width="27" height="17" fill="white"/>
</clipPath>
</defs>
</svg>
