<svg width="27" height="17" viewBox="0 0 27 17" fill="none" xmlns="http://www.w3.org/2000/svg">
<g clip-path="url(#clip0_48_2080)">
<path d="M27 0H0V17H27V0Z" fill="#922614"/>
<path d="M4.33691 9.7238C3.91297 9.5872 3.50098 8.988 3.50098 8.5312C3.50098 7.9605 3.97829 7.4978 4.56709 7.4978C4.80266 7.4978 5.02039 7.5719 5.19684 7.6973C5.16603 7.7359 5.09864 7.7764 4.97655 7.8158C4.69216 7.9259 4.81225 8.0834 4.96904 8.2891C5.07443 8.4274 5.19641 8.5874 5.22322 8.7693C5.28883 9.2145 4.9502 9.2468 4.79785 9.2468C4.81348 9.3264 4.79785 9.9022 4.33691 9.7238Z" fill="#FFD700" fill-opacity="0.6"/>
<path d="M5.29643 13.8549C5.0504 13.7755 4.96839 13.378 5.0504 13.2985C5.11601 13.2349 5.24175 13.272 5.29643 13.2985C5.56979 13.495 6.21492 13.8018 6.60856 13.4575C7.10193 12.9792 7.89819 13.1469 8.06021 13.2034L8.08471 13.219C8.09624 13.219 8.0867 13.2127 8.06021 13.2034C7.47665 12.8406 6.85119 12.9555 6.60856 13.06C6.60856 12.6148 6.3352 12.6095 6.19852 12.6625C6.25319 12.636 6.31333 12.5353 6.11651 12.3445C5.91969 12.1537 5.76114 12.318 5.70647 12.424C5.62446 12.6095 5.39484 12.9328 5.13241 12.742C4.86998 12.5512 5.02307 12.3445 5.13241 12.265C5.0504 12.424 5.13241 12.583 5.29643 12.583C5.46044 12.583 5.46044 12.424 5.37843 12.106C5.31283 11.8517 5.02307 11.947 4.88638 12.0265C4.36153 11.7086 4.12097 12.106 4.0663 12.3445C3.21341 12.5353 3.43757 13.113 3.65626 13.378C3.62892 13.3515 3.47582 13.3144 3.08218 13.378C2.68854 13.4416 2.86348 13.7224 3.00016 13.8549C2.67212 14.0934 3.00016 14.4909 3.4102 14.4909C3.53723 14.4909 3.67157 14.4954 3.80755 14.5C4.54991 14.525 5.34385 14.5517 5.29643 13.8549Z" fill="#FFD700" fill-opacity="0.6"/>
<path d="M15.982 13.2986C15.982 13.3201 16.0689 13.4915 16.2355 13.45C16.3184 13.4613 16.3796 13.4467 16.4342 13.4338C16.5203 13.4134 16.5899 13.3969 16.7016 13.4915C16.7479 13.5307 16.7949 13.5704 16.8435 13.6091C16.9543 13.6971 17.0732 13.7793 17.2106 13.8348L17.5 13.9799C17.4008 14.0082 17.3044 14.0352 17.2106 14.0609C15.4474 14.5428 15.2436 14.4265 14.9236 14.244C14.8755 14.2165 14.8248 14.1876 14.7658 14.159C14.2737 13.9205 13.111 14.3243 13.193 14.5628C13.275 14.4833 13.4718 14.3879 13.603 14.6423C13.7342 14.8967 13.3844 14.9868 13.193 15C12.9743 14.9868 12.5861 14.849 12.7829 14.4038C12.7829 14.3789 12.7588 14.3461 12.7306 14.308C12.669 14.2246 12.5885 14.1154 12.7011 14.0063C12.8323 13.8791 13.2478 13.9003 13.4391 13.9268C13.1931 13.6883 12.9143 13.1478 13.7671 12.8934C13.7671 12.521 14.4867 12.9002 14.4867 12.9307C14.4867 13.432 14.9931 13.378 15.0799 13.2283C15.2408 13.0693 15.9436 13.0376 15.982 13.2986Z" fill="#FFD700" fill-opacity="0.6"/>
<path d="M22.4021 13.6505C22.9269 13.3961 23.2768 13.1205 23.3862 13.0145C23.1128 13.018 22.5497 12.9751 22.4841 12.776C22.4841 12.617 22.2381 12.5375 22.1561 12.6965C22.1561 12.5375 22.0576 12.2354 21.664 12.299C21.2704 12.3626 21.2813 12.6435 21.336 12.776C21.1993 12.8025 20.9587 12.935 21.0899 13.253C21.2211 13.571 21.418 13.5445 21.5 13.4915C21.582 13.6505 21.8772 13.9049 22.4021 13.6505Z" fill="#FFD700" fill-opacity="0.6"/>
<path d="M10.7451 13.3646C10.6282 13.3249 10.114 13.3631 10 13.4585C10.0761 13.6192 10.3419 13.6192 10.2145 13.8388C10.1421 13.8771 10.0703 13.9298 10 14.0001L9.95044 14.0263C9.7187 14.1493 9.30791 13.9587 9.11049 13.8388C8.77245 13.6334 8.43616 13.4291 7.9224 14.3078C7.59282 14.7703 7.81254 15.0016 8.36184 15.0016C8.4351 15.3099 8.71345 15.8572 9.24078 15.5797C9.76811 15.3022 10.4253 14.9785 10.5718 14.7087C10.7549 14.4389 11.2969 14.015 12 14.4775C11.9278 14.3406 11.7825 14.1749 11.563 14.0643L11.4608 14.0222C11.5653 13.9925 11.6756 13.941 11.7829 13.8578C11.9684 13.7139 12.0228 13.4531 12.0943 13.1098C12.1493 12.8461 12.2144 12.5338 12.3569 12.1884C12.3569 12.1089 12.0781 12.1564 11.9469 12.3472C11.8988 12.4171 11.9248 12.7021 11.9469 12.7449C11.5 12.5001 11.2924 12.1722 11.2924 12.1722L14.49 8.7701C14.9274 8.6111 15.5725 8.6111 14.654 9.8831C13.7355 11.155 14.8727 12.1619 15.5561 12.5064C16.4006 12.7887 17.0816 12.7483 17.8542 12.7024C18.5553 12.6609 19.0452 12.4458 19.5 13.0001C19.4659 13.0547 19.4109 13.3179 19.3276 13.3366C19.163 13.4045 19 13.2562 18.6872 13.2775C18.3677 13.2992 18.1612 13.7132 18.1528 14.0062L19.5 14.0001C20.0494 13.9474 20.2961 13.5119 20.3407 12.9939C20.4063 12.2308 20.4884 11.7845 20.5704 11.705L20 11.3594C20.5 11.0001 20.7553 10.6501 21.0352 10.4634C21.2767 10.3023 21.5772 10.258 21.7885 10.1215C21.5736 9.9131 21.405 10.0001 21.405 9.8632C21.4903 9.8091 21.6031 9.769 21.7219 9.7268C21.927 9.654 22.15 9.5748 22.2805 9.406C22.0345 9.459 21.6409 9.4219 22.0345 8.8495C22.4282 8.2772 22 8.0001 22 8.0001C22 8.0001 21.5708 7.6723 21.5 7.5001C21.4428 7.3608 21.0762 7.0739 21 7.0001C21.0998 7.3329 21.1959 7.9773 21.0848 8.1848C21.0232 8.059 20.9384 7.7395 20.5927 7.4661C20.5193 7.4202 20.4516 7.3778 20.3946 7.3392C19.7386 6.894 20.0666 6.5177 20.3126 6.3852C20.5586 6.2528 20.8042 6.2259 20.8042 6.2259C21.6928 6.2259 21.4296 5.7664 22.1596 5.5998C22.9442 5.4207 22.3859 5.2028 21.8703 5.3515C22.4219 5.1925 22.5 4.87473 23.1004 4.31803C22.9364 4.31802 22.7296 4.23854 21.9915 4.79501C21.8821 4.8745 21.6571 5.0494 21.7883 4.79501C21.8489 4.6774 22.0227 4.52353 22.0934 4.42931C22.3482 4.08956 22.4848 3.79855 22.2803 2.80762C22.171 3.25809 21.8867 4.17494 21.6243 4.23854C21.3618 4.30213 21.6309 3.45054 21.6309 3.00007C21.0008 3.81448 20.8042 4.23854 20.7222 4.63602C20.5089 3.80791 20.4345 4.05825 20.2725 4.48732C20.1858 4.71719 20.0739 4.99836 19.9021 5.1925C19.526 5.3748 18.8412 6.4587 18.8399 6.9579C18.8386 7.4571 19.3538 7.8661 19.7552 8.1848C19.9201 8.3156 20.0657 8.4312 20.1486 8.5316C20.3654 8.7944 20.3359 9.1113 20.2729 9.3032C19.8874 9.8165 19.5 10.1501 19 10.6501C18.6872 10.9211 18.0416 11.2887 17.5715 11.3594C16.0954 11.4389 16.0667 10.8999 16.2 10.5001C16.7 9.0001 16.7316 8.7171 16.7043 8.3727C16.7589 8.0017 16.5238 7.2279 15.1461 7.1007C13.8498 6.9811 12.9252 8.1225 12.0226 9.2367C11.7261 9.6028 11.4319 9.966 11.1277 10.2806C10.1436 11.2981 9.18682 10.9165 8.83145 10.5985C8.71781 10.4412 8.60031 10.1567 8.67477 9.8717C9.65917 8.3727 11.6586 8.8978 12.0304 7.0001C11.3088 7.0637 10.4294 6.6238 10.1436 6.1468C10.1436 6.9735 9.70624 7.3922 9.48757 7.4982L7.76534 8.6111C7.23934 8.9866 7.1048 9.3763 7.05952 9.6587C6.99587 10.0556 7.10856 10.2403 6.55835 9.8752C6.48807 9.8349 6.41929 9.7474 6.34961 9.6587C6.25122 9.5334 6.34961 9.2176 6.19246 9.1531C6.19246 8.8594 6.19192 8.4819 6.12434 8.2579C5.99824 7.9533 5.71864 7.5317 5.5 7.5001L5.43813 7.6251C5.53914 7.7402 5.5739 8.1581 5.59512 8.4923C5.59512 9.0587 5.31811 9.8416 5 9.8752V9.9891C5.36198 10.0891 5.75 9.2367 6.12434 9.8034C6.12434 10.356 6.85811 11.0508 7.0033 11.0822C7.01089 11.1063 7.01887 11.1306 7.02726 11.155C7.87799 13.3541 9.60713 13.1373 10.6783 12.6101C10.7851 12.7438 10.9216 12.8317 11.2115 13.0001C11.2517 13.2366 11.1277 13.4945 10.7451 13.3646Z" fill="#FFD700" fill-opacity="0.85"/>
<path fill-rule="evenodd" clip-rule="evenodd" d="M8.42211 2.8872C8.12141 2.8607 7.65123 2.63282 8.17608 1.93325C8.70094 1.23369 8.9415 1.53578 8.99618 1.77426L9.07818 2.09226C9.07818 2.19825 9.32421 2.37844 10.3083 2.25125C11.0686 2.15299 11.3276 2.38874 11.6857 2.71453C11.9069 2.91589 12.166 3.15164 12.6045 3.36419C12.867 3.49138 13.2059 3.31119 13.3426 3.2052C13.5066 3.1257 13.7855 3.0621 13.5886 3.44368C13.3918 3.82526 13.0693 3.76167 12.9326 3.68217C13.0146 3.84116 13.3918 4.07965 14.2447 3.76167C15.0976 3.44368 14.6001 3.89416 14.2447 4.15914C13.944 4.34463 13.0802 4.46123 12.0305 3.44368C11.8938 3.62917 11.5548 4.00015 11.2924 4.00015C11.3744 4.23864 11.4072 4.76331 10.8824 4.9541C10.6635 5.0336 10.2263 4.9276 10.2263 4.79511C10.1716 4.84811 10.0131 4.9382 9.81626 4.8746C9.7979 4.8746 9.78776 4.83078 9.77388 4.77077C9.72576 4.56275 9.63267 4.16033 8.99618 4.71561C8.3401 5.288 8.01207 5.2191 7.93007 5.1131C7.84806 4.9276 7.66761 4.23847 7.93004 3.92049C7.99566 3.85689 8.12141 4.10598 8.17608 4.23847C8.20342 4.15897 8.2909 4.01588 8.42211 4.07948C8.55332 4.14307 8.58613 4.05298 8.58613 3.99998L8.83215 4.07948L9.07818 4.15914L9.32423 4.00015L9.65227 3.84116C9.6541 3.8376 9.6565 3.83352 9.65921 3.82892C9.6968 3.76499 9.79296 3.60147 9.24222 3.36419C8.84858 3.23699 8.64083 3.0462 8.58616 2.96671C8.58614 2.90228 8.5533 2.79618 8.42211 2.8872ZM10.3611 2.76797C10.3879 2.76797 10.4294 2.73723 10.4294 2.76797C10.4294 2.87773 10.3377 2.96671 10.2244 2.96671C10.1112 2.96671 10.0194 2.87773 10.0194 2.76797C10.0194 2.65821 10.1112 2.56923 10.2244 2.56923C10.256 2.56923 10.2244 2.60812 10.2244 2.63548C10.2244 2.70865 10.2856 2.76797 10.3611 2.76797Z" fill="#FFD700" fill-opacity="0.9"/>
<path d="M10.0603 5.0336C9.89632 5.5636 9.96193 6.5918 11.5365 6.4646C12.1926 6.401 12.6847 6.7561 12.8487 6.9415C12.9326 6.3252 12.3369 6.0968 12.3369 6.1467C12.608 6.0898 12.7898 6.0198 12.9326 6C13.3918 5.9364 13.9631 5.6431 14.1923 5.8286C14.1282 5.594 13.8741 5.098 13.3664 4.96073C13.4685 4.97999 13.7381 4.96858 14.1923 4.79516C14.4952 4.73157 14.8169 4.87466 14.8169 4.87466C14.3929 4.46362 14.2086 4.45108 13.8878 4.42924C13.7123 4.41729 13.4958 4.40256 13.1767 4.31821C12.2746 4.07972 12.0286 3.68224 12.0286 3.68224C12.0227 3.92473 11.5365 4.15922 11.5365 4.15922C11.4657 4.37842 11.6857 4.77077 11.2085 5.1132C10.5389 5.3514 10.4431 5.1396 10.2244 5.0336H10.0603Z" fill="#FFD700" fill-opacity="0.9"/>
<path d="M8.4208 5.66951C8.15837 5.54231 7.90141 5.35151 7.84674 5.27201C8.4208 5.43101 8.72149 5.11301 8.83084 4.95406C8.74172 5.17001 8.79212 5.39381 8.82888 5.55701C8.88275 5.79621 8.90734 5.90531 8.4208 5.66951Z" fill="#FFD700" fill-opacity="0.9"/>
</g>
<defs>
<clipPath id="clip0_48_2080">
<rect width="27" height="17" fill="white"/>
</clipPath>
</defs>
</svg>
