<svg width="27" height="17" viewBox="0 0 27 17" fill="none" xmlns="http://www.w3.org/2000/svg">
<g clip-path="url(#clip0_48_1798)">
<path d="M27 0H11V1H27V0Z" fill="#CC0000"/>
<path d="M11 2H27V3H11V2Z" fill="#CC0000"/>
<path d="M11 4H27V5H11V4Z" fill="#CC0000"/>
<path d="M11 6H27V7H11V6Z" fill="#CC0000"/>
<path d="M11 8H27V9H11V8Z" fill="#CC0000"/>
<path d="M27 10H0V11H27V10Z" fill="#CC0000"/>
<path d="M0 12H27V13H0V12Z" fill="#CC0000"/>
<path d="M27 14H0V15H27V14Z" fill="#CC0000"/>
<path d="M0 16H27V17H0V16Z" fill="#CC0000"/>
<path d="M0 9V10H27V9H0Z" fill="white"/>
<path d="M11 8V7H27V8H11Z" fill="white"/>
<path d="M11 6H27V5H11V6Z" fill="white"/>
<path d="M11 4H27V3H11V4Z" fill="white"/>
<path d="M11 2H27V1H11V2Z" fill="white"/>
<path d="M0 11H27V12H0V11Z" fill="white"/>
<path d="M27 13H0V14H27V13Z" fill="white"/>
<path d="M0 15H27V16H0V15Z" fill="white"/>
<path fill-rule="evenodd" clip-rule="evenodd" d="M0 0H11V9H0V0ZM2 1.5C2 1.77614 1.77614 2 1.5 2C1.22386 2 1 1.77614 1 1.5C1 1.22386 1.22386 1 1.5 1C1.77614 1 2 1.22386 2 1.5ZM4 1.5C4 1.77614 3.77614 2 3.5 2C3.22386 2 3 1.77614 3 1.5C3 1.22386 3.22386 1 3.5 1C3.77614 1 4 1.22386 4 1.5ZM5.5 2C5.77614 2 6 1.77614 6 1.5C6 1.22386 5.77614 1 5.5 1C5.22386 1 5 1.22386 5 1.5C5 1.77614 5.22386 2 5.5 2ZM8 1.5C8 1.77614 7.77614 2 7.5 2C7.22386 2 7 1.77614 7 1.5C7 1.22386 7.22386 1 7.5 1C7.77614 1 8 1.22386 8 1.5ZM9.5 2C9.77614 2 10 1.77614 10 1.5C10 1.22386 9.77614 1 9.5 1C9.22386 1 9 1.22386 9 1.5C9 1.77614 9.22386 2 9.5 2ZM2 3.5C2 3.77614 1.77614 4 1.5 4C1.22386 4 1 3.77614 1 3.5C1 3.22386 1.22386 3 1.5 3C1.77614 3 2 3.22386 2 3.5ZM3.5 4C3.77614 4 4 3.77614 4 3.5C4 3.22386 3.77614 3 3.5 3C3.22386 3 3 3.22386 3 3.5C3 3.77614 3.22386 4 3.5 4ZM6 3.5C6 3.77614 5.77614 4 5.5 4C5.22386 4 5 3.77614 5 3.5C5 3.22386 5.22386 3 5.5 3C5.77614 3 6 3.22386 6 3.5ZM7.5 4C7.77614 4 8 3.77614 8 3.5C8 3.22386 7.77614 3 7.5 3C7.22386 3 7 3.22386 7 3.5C7 3.77614 7.22386 4 7.5 4ZM10 3.5C10 3.77614 9.77614 4 9.5 4C9.22386 4 9 3.77614 9 3.5C9 3.22386 9.22386 3 9.5 3C9.77614 3 10 3.22386 10 3.5ZM1.5 6C1.77614 6 2 5.7761 2 5.5C2 5.2239 1.77614 5 1.5 5C1.22386 5 1 5.2239 1 5.5C1 5.7761 1.22386 6 1.5 6ZM4 5.5C4 5.7761 3.77614 6 3.5 6C3.22386 6 3 5.7761 3 5.5C3 5.2239 3.22386 5 3.5 5C3.77614 5 4 5.2239 4 5.5ZM5.5 6C5.77614 6 6 5.7761 6 5.5C6 5.2239 5.77614 5 5.5 5C5.22386 5 5 5.2239 5 5.5C5 5.7761 5.22386 6 5.5 6ZM8 5.5C8 5.7761 7.77614 6 7.5 6C7.22386 6 7 5.7761 7 5.5C7 5.2239 7.22386 5 7.5 5C7.77614 5 8 5.2239 8 5.5ZM9.5 6C9.77614 6 10 5.7761 10 5.5C10 5.2239 9.77614 5 9.5 5C9.22386 5 9 5.2239 9 5.5C9 5.7761 9.22386 6 9.5 6ZM2 7.5C2 7.7761 1.77614 8 1.5 8C1.22386 8 1 7.7761 1 7.5C1 7.2239 1.22386 7 1.5 7C1.77614 7 2 7.2239 2 7.5ZM3.5 8C3.77614 8 4 7.7761 4 7.5C4 7.2239 3.77614 7 3.5 7C3.22386 7 3 7.2239 3 7.5C3 7.7761 3.22386 8 3.5 8ZM6 7.5C6 7.7761 5.77614 8 5.5 8C5.22386 8 5 7.7761 5 7.5C5 7.2239 5.22386 7 5.5 7C5.77614 7 6 7.2239 6 7.5ZM7.5 8C7.77614 8 8 7.7761 8 7.5C8 7.2239 7.77614 7 7.5 7C7.22386 7 7 7.2239 7 7.5C7 7.7761 7.22386 8 7.5 8ZM10 7.5C10 7.7761 9.77614 8 9.5 8C9.22386 8 9 7.7761 9 7.5C9 7.2239 9.22386 7 9.5 7C9.77614 7 10 7.2239 10 7.5Z" fill="#002664"/>
<path d="M1.5 2C1.77614 2 2 1.77614 2 1.5C2 1.22386 1.77614 1 1.5 1C1.22386 1 1 1.22386 1 1.5C1 1.77614 1.22386 2 1.5 2Z" fill="white"/>
<path d="M3.5 2C3.77614 2 4 1.77614 4 1.5C4 1.22386 3.77614 1 3.5 1C3.22386 1 3 1.22386 3 1.5C3 1.77614 3.22386 2 3.5 2Z" fill="white"/>
<path d="M5.5 2C5.77614 2 6 1.77614 6 1.5C6 1.22386 5.77614 1 5.5 1C5.22386 1 5 1.22386 5 1.5C5 1.77614 5.22386 2 5.5 2Z" fill="white"/>
<path d="M7.5 2C7.77614 2 8 1.77614 8 1.5C8 1.22386 7.77614 1 7.5 1C7.22386 1 7 1.22386 7 1.5C7 1.77614 7.22386 2 7.5 2Z" fill="white"/>
<path d="M9.5 2C9.77614 2 10 1.77614 10 1.5C10 1.22386 9.77614 1 9.5 1C9.22386 1 9 1.22386 9 1.5C9 1.77614 9.22386 2 9.5 2Z" fill="white"/>
<path d="M1.5 4C1.77614 4 2 3.77614 2 3.5C2 3.22386 1.77614 3 1.5 3C1.22386 3 1 3.22386 1 3.5C1 3.77614 1.22386 4 1.5 4Z" fill="white"/>
<path d="M3.5 4C3.77614 4 4 3.77614 4 3.5C4 3.22386 3.77614 3 3.5 3C3.22386 3 3 3.22386 3 3.5C3 3.77614 3.22386 4 3.5 4Z" fill="white"/>
<path d="M5.5 4C5.77614 4 6 3.77614 6 3.5C6 3.22386 5.77614 3 5.5 3C5.22386 3 5 3.22386 5 3.5C5 3.77614 5.22386 4 5.5 4Z" fill="white"/>
<path d="M7.5 4C7.77614 4 8 3.77614 8 3.5C8 3.22386 7.77614 3 7.5 3C7.22386 3 7 3.22386 7 3.5C7 3.77614 7.22386 4 7.5 4Z" fill="white"/>
<path d="M9.5 4C9.77614 4 10 3.77614 10 3.5C10 3.22386 9.77614 3 9.5 3C9.22386 3 9 3.22386 9 3.5C9 3.77614 9.22386 4 9.5 4Z" fill="white"/>
<path d="M1.5 6C1.77614 6 2 5.7761 2 5.5C2 5.2239 1.77614 5 1.5 5C1.22386 5 1 5.2239 1 5.5C1 5.7761 1.22386 6 1.5 6Z" fill="white"/>
<path d="M3.5 6C3.77614 6 4 5.7761 4 5.5C4 5.2239 3.77614 5 3.5 5C3.22386 5 3 5.2239 3 5.5C3 5.7761 3.22386 6 3.5 6Z" fill="white"/>
<path d="M5.5 6C5.77614 6 6 5.7761 6 5.5C6 5.2239 5.77614 5 5.5 5C5.22386 5 5 5.2239 5 5.5C5 5.7761 5.22386 6 5.5 6Z" fill="white"/>
<path d="M7.5 6C7.77614 6 8 5.7761 8 5.5C8 5.2239 7.77614 5 7.5 5C7.22386 5 7 5.2239 7 5.5C7 5.7761 7.22386 6 7.5 6Z" fill="white"/>
<path d="M9.5 6C9.77614 6 10 5.7761 10 5.5C10 5.2239 9.77614 5 9.5 5C9.22386 5 9 5.2239 9 5.5C9 5.7761 9.22386 6 9.5 6Z" fill="white"/>
<path d="M1.5 8C1.77614 8 2 7.7761 2 7.5C2 7.2239 1.77614 7 1.5 7C1.22386 7 1 7.2239 1 7.5C1 7.7761 1.22386 8 1.5 8Z" fill="white"/>
<path d="M3.5 8C3.77614 8 4 7.7761 4 7.5C4 7.2239 3.77614 7 3.5 7C3.22386 7 3 7.2239 3 7.5C3 7.7761 3.22386 8 3.5 8Z" fill="white"/>
<path d="M5.5 8C5.77614 8 6 7.7761 6 7.5C6 7.2239 5.77614 7 5.5 7C5.22386 7 5 7.2239 5 7.5C5 7.7761 5.22386 8 5.5 8Z" fill="white"/>
<path d="M7.5 8C7.77614 8 8 7.7761 8 7.5C8 7.2239 7.77614 7 7.5 7C7.22386 7 7 7.2239 7 7.5C7 7.7761 7.22386 8 7.5 8Z" fill="white"/>
<path d="M9.5 8C9.77614 8 10 7.7761 10 7.5C10 7.2239 9.77614 7 9.5 7C9.22386 7 9 7.2239 9 7.5C9 7.7761 9.22386 8 9.5 8Z" fill="white"/>
</g>
<defs>
<clipPath id="clip0_48_1798">
<rect width="27" height="17" fill="white"/>
</clipPath>
</defs>
</svg>
