<svg width="27" height="17" viewBox="0 0 27 17" fill="none" xmlns="http://www.w3.org/2000/svg">
<g clip-path="url(#clip0_48_1920)">
<path fill-rule="evenodd" clip-rule="evenodd" d="M27 0H0V17H27V0ZM4.81918 3.0103L4.53854 2.15991L4.25789 3.0103H3.34972L4.08445 3.53587L3.80381 4.38626L4.53854 3.86069L5.27327 4.38626L4.99263 3.53587L5.72736 3.0103H4.81918ZM5.96343 8.0432L6.49996 8.56C6.62107 8.8309 6.25761 9.1035 6.03048 8.8944L5.49395 8.3168C4.89022 8.65 4.15043 8.4973 3.69656 7.9824C3.68523 8.0454 3.6431 8.0991 3.58923 8.1192C3.4263 8.1859 3.29209 8.3324 3.22708 8.5144C3.16586 8.6851 2.77849 9.1213 2.56537 8.9099C2.48952 8.8347 2.52368 8.6736 2.55514 8.5875C2.61247 8.4304 2.7694 8.2814 2.93198 8.2408C3.10132 8.1884 3.24577 8.0629 3.33437 7.8912C3.38188 7.7679 3.51829 7.6964 3.62947 7.7392L3.80385 7.648C4.13073 8.011 4.63911 8.1033 5.07814 7.9064L3.88432 6.6599L3.41489 7.1312L2.91856 6.6143L3.91118 5.6263L4.79647 5.7479L4.16604 6.3711L5.50738 7.6176C6.17126 6.7652 5.43812 5.5123 4.64329 5.017L4.65921 4.99994C5.84313 5.3867 6.77023 6.9061 5.96343 8.0432Z" fill="#CC0000"/>
<path d="M6.49996 8.56L5.96343 8.0432C6.77023 6.9061 5.84313 5.3867 4.65921 4.99994L4.64329 5.017C5.43812 5.5123 6.17126 6.7652 5.50738 7.6176L4.16604 6.3711L4.79647 5.7479L3.91118 5.6263L2.91856 6.6143L3.41489 7.1312L3.88432 6.6599L5.07814 7.9064C4.63911 8.1033 4.13073 8.011 3.80385 7.648L3.62947 7.7392C3.51829 7.6964 3.38188 7.7679 3.33437 7.8912C3.24577 8.0629 3.10132 8.1884 2.93198 8.2408C2.7694 8.2814 2.61247 8.4304 2.55514 8.5875C2.52368 8.6736 2.48952 8.8347 2.56537 8.9099C2.77849 9.1213 3.16586 8.6851 3.22708 8.5144C3.29209 8.3324 3.4263 8.1859 3.58923 8.1192C3.6431 8.0991 3.68523 8.0454 3.69656 7.9824C4.15043 8.4973 4.89022 8.65 5.49395 8.3168L6.03048 8.8944C6.25761 9.1035 6.62107 8.8309 6.49996 8.56Z" fill="#FFD700"/>
<path d="M4.53855 2.15991L4.81919 3.0103H5.72737L4.99264 3.53587L5.27328 4.38626L4.53855 3.86069L3.80382 4.38626L4.08446 3.53587L3.34973 3.0103H4.2579L4.53855 2.15991Z" fill="#FFD700"/>
</g>
<defs>
<clipPath id="clip0_48_1920">
<rect width="27" height="17" fill="white"/>
</clipPath>
</defs>
</svg>
