<svg width="1514" height="1707" viewBox="0 0 1514 1707" fill="none" xmlns="http://www.w3.org/2000/svg">
<path d="M720.267 2.6669C703.733 7.0669 690.267 15.0669 676.533 28.6669C666.667 38.5336 663.467 42.8002 658.933 52.0002C648.267 73.6002 649.2 90.0002 661.733 105.734C664.4 109.067 664.667 111.334 665.067 126.534C665.467 140.934 665.067 145.734 662.133 158.4C656 185.6 649.733 195.067 635.067 199.334C601.067 209.334 478.933 227.334 434.533 228.934C414.4 229.6 411.6 229.467 403.2 226.934C398.133 225.334 389.867 221.6 384.667 218.534C368.8 209.2 361.467 206.267 352.4 206.134C342.4 206 338.267 208.534 332.933 218.4C326 231.2 324.8 240.667 324.667 282C324.667 313.734 325.067 320.934 327.2 330.134C330.267 343.467 335.2 352.934 341.333 357.067C348.267 361.867 360 360.667 373.2 354.134C386.4 347.467 397.067 345.334 418.8 345.334C438.4 345.334 491.467 349.867 534 355.334C615.2 365.6 636.8 374.134 645.6 399.734L648.667 408.667L648.533 537.334C648.533 683.334 645.733 816.8 639.333 972C630.933 1178.27 615.867 1276.8 587.867 1308.53C574.533 1323.73 516.533 1344.67 465.333 1352.8C422.133 1359.6 374.533 1348.13 322.933 1318.53C273.333 1289.87 214 1241.2 153.6 1179.6L139.867 1165.6L147.6 1163.33C169.067 1157.07 237.2 1144 248.267 1144C250.4 1144 252 1143.6 252 1142.93C252 1142.4 239.867 1137.07 224.933 1131.07C210.133 1125.07 182.4 1113.73 163.333 1105.87C7.33346 1042 1.33346 1039.6 0.533457 1040.27C0.000123705 1040.93 5.60012 1144.27 10.0001 1212.67C16.0001 1305.73 21.4668 1363.2 24.4001 1366.27C27.6001 1369.33 32.2668 1357.33 43.4668 1318.13C55.2001 1276.8 65.4668 1244 66.5335 1244C67.0668 1244 71.2001 1251.07 76.0001 1259.6C98.6668 1301.33 131.333 1352.67 155.467 1384.8C221.333 1472.53 287.733 1522.53 369.867 1546.53C393.467 1553.47 409.467 1556.53 448 1561.47C525.867 1571.33 596.8 1585.87 639.333 1600.4C666.8 1609.87 672.267 1615.6 710.667 1676.27C720.133 1691.2 734.267 1706.67 738.267 1706.67C744.8 1706.67 757.2 1691.87 774.533 1663.33C792.667 1633.6 806.667 1615.87 817.2 1609.2C829.2 1601.47 876.8 1587.87 925.333 1578.13C958.533 1571.47 984 1567.33 1020.67 1562.67C1080.53 1555.07 1105.87 1549.2 1142 1534.67C1246.8 1492.67 1335.6 1392.13 1426.8 1212.13C1439.47 1187.33 1441.47 1184.13 1442.4 1186.8C1443.07 1188.53 1444.93 1193.6 1446.53 1197.87C1451.73 1211.87 1458.27 1233.2 1469.33 1271.73C1480.4 1310.8 1484.27 1321.33 1487.47 1321.33C1488.4 1321.33 1489.6 1319.73 1490.13 1317.6C1490.53 1315.6 1491.2 1313.07 1491.47 1312C1494.13 1300.67 1501.2 1206.53 1508 1089.33C1510.13 1051.6 1512.27 1014.8 1512.8 1007.6L1513.6 994.667L1505.87 998C1501.47 999.734 1462.93 1015.6 1420 1033.07C1377.07 1050.67 1323.87 1072.4 1301.6 1081.47C1273.73 1092.8 1261.87 1098.27 1263.6 1098.8C1264.93 1099.33 1277.87 1101.6 1292.4 1103.87C1326.53 1109.33 1372.8 1119.6 1376.4 1122.67C1377.87 1123.87 1307.07 1196.8 1281.2 1220.8C1208.13 1288.4 1150.4 1327.2 1096.4 1344.67C1072.4 1352.53 1063.07 1354 1038 1354C1018.27 1354 1012.93 1353.47 996.667 1350.13C944.4 1339.47 895.733 1319.73 886.4 1305.6C862.533 1269.6 848.667 1188.67 840.667 1038.67C832.4 883.2 825.333 553.734 827.867 449.334C828.933 408.934 829.2 405.467 832 398.134C841.2 374.134 863.733 365.334 942.933 355.334C1011.33 346.667 1064.93 343.467 1083.47 346.8C1087.73 347.6 1096.4 350.667 1102.67 353.6C1117.6 360.667 1128.93 361.867 1136 357.067C1142 352.934 1147.47 342.134 1150.27 328.667C1153.47 313.2 1153.47 252 1150.27 236.667C1147.47 223.734 1142.4 212.934 1137.33 209.334C1128 202.667 1116.13 204.934 1093.47 217.867C1086.4 221.867 1076.8 226.267 1072 227.467C1056 231.6 1016.27 228.4 932.667 216.534C883.6 209.467 841.867 200.8 832.533 195.467C821.6 189.334 811.733 158.534 811.467 130C811.333 112.8 811.333 112.667 820.533 98.0002C828.533 85.0669 826.267 63.3336 814.933 46.0002C800.533 23.8669 779.867 8.6669 756.267 2.53357C743.733 -0.66643 732.8 -0.533097 720.267 2.6669ZM743.867 50.8002C758.8 53.2002 765.333 59.4669 765.6 71.7336C765.867 83.7336 756.933 93.2002 742.667 96.2669C729.467 98.9336 718.267 95.3336 711.467 86.2669C707.467 80.8002 707.467 65.8669 711.467 60.4002C715.067 55.6002 720.933 52.1336 728.267 50.8002C731.333 50.1336 734.267 49.6002 734.667 49.4669C735.067 49.4669 739.2 50.0002 743.867 50.8002Z" fill="white"/>
</svg>
