<svg width="24" height="24" viewBox="0 0 24 24" fill="none" xmlns="http://www.w3.org/2000/svg">
<path d="M5.48339 9.2478H3.31116V15.7645H5.48339V9.2478ZM20.689 9.2478H18.5168V15.7645H20.689V9.2478ZM17.9738 9.2478H6.02645V15.7645H17.9738V9.2478ZM19.1685 17.8281L20.689 16.3076H16.3446C17.5393 16.3076 18.5168 16.9592 19.1685 17.8281ZM4.83172 17.8281C5.48339 16.9592 6.46089 16.3076 7.65562 16.3076H3.31116L4.83172 17.8281ZM16.3446 16.3076H7.65562C9.50202 16.3076 10.914 17.7195 10.914 19.5659H13.0862C13.0862 17.7195 14.4982 16.3076 16.3446 16.3076Z" fill="#E6E6E6"/>
<path d="M16.3445 18.4798C16.9962 18.4798 17.4306 18.9142 17.4306 19.5659C17.4306 20.2176 16.9962 20.652 16.3445 20.652C15.6928 20.652 15.2584 20.2176 15.2584 19.5659C15.2584 18.9142 15.6928 18.4798 16.3445 18.4798ZM16.3445 17.3937C15.1498 17.3937 14.1723 18.3712 14.1723 19.5659C14.1723 20.7606 15.1498 21.7381 16.3445 21.7381C17.5392 21.7381 18.5167 20.7606 18.5167 19.5659C18.5167 18.3712 17.5392 17.3937 16.3445 17.3937ZM7.65557 18.4798C8.30724 18.4798 8.74168 18.9142 8.74168 19.5659C8.74168 20.2176 8.30724 20.652 7.65557 20.652C7.0039 20.652 6.56945 20.2176 6.56945 19.5659C6.56945 18.9142 7.0039 18.4798 7.65557 18.4798ZM7.65557 17.3937C6.46084 17.3937 5.48334 18.3712 5.48334 19.5659C5.48334 20.7606 6.46084 21.7381 7.65557 21.7381C8.8503 21.7381 9.8278 20.7606 9.8278 19.5659C9.8278 18.3712 8.8503 17.3937 7.65557 17.3937ZM4.39722 8.70475L9.8278 3.27417L13.0861 5.4464L15.2584 4.36029L19.6028 8.70475H4.39722Z" fill="#E6E6E6"/>
</svg>
