<svg width="24" height="24" viewBox="0 0 24 24" fill="none" xmlns="http://www.w3.org/2000/svg">
<mask id="mask0_27_652" style="mask-type:luminance" maskUnits="userSpaceOnUse" x="4" y="4" width="16" height="16">
<path d="M20 4H4V20H20V4Z" fill="white"/>
</mask>
<g mask="url(#mask0_27_652)">
<path fill-rule="evenodd" clip-rule="evenodd" d="M11.45 6.34998C8.60579 6.34998 6.30005 8.65571 6.30005 11.5C6.30005 14.3442 8.60579 16.65 11.45 16.65C12.7655 16.65 13.9658 16.1568 14.876 15.3452L17.85 18.3192L18.7692 17.4L15.7318 14.3625C16.2802 13.5439 16.6 12.5593 16.6 11.5C16.6 8.65571 14.2943 6.34998 11.45 6.34998ZM7.60005 11.5C7.60005 9.37368 9.32376 7.64998 11.45 7.64998C13.5763 7.64998 15.3 9.37368 15.3 11.5C15.3 13.6263 13.5763 15.35 11.45 15.35C9.32376 15.35 7.60005 13.6263 7.60005 11.5Z" fill="#E6E6E6"/>
</g>
</svg>
