<svg width="24" height="24" viewBox="0 0 24 24" fill="none" xmlns="http://www.w3.org/2000/svg">
<path d="M12.9444 14.2778C12.9444 12.625 14.1722 11.3611 15.7778 11.3611H20.5V9.41665C20.5 8.43098 19.7779 8.43635 18.8514 8.44324C18.7727 8.44383 18.6924 8.44443 18.6111 8.44443H5.38886C4.44442 8.44443 3.49998 7.95832 3.49998 6.98609C3.49998 6.01387 4.44442 5.52776 5.38886 5.52776H19.5555V4.55554H5.29443C3.78332 4.55554 2.55554 5.81943 2.55554 7.37498V18.1667C2.55554 19.1389 3.49998 20.1111 4.44442 20.1111H18.6111C19.65 20.1111 20.5 19.2361 20.5 18.1667V17.1945H15.7778C14.1722 17.1945 12.9444 15.9306 12.9444 14.2778Z" fill="#E6E6E6"/>
<path d="M18.611 6.49997H4.44446V7.4722H18.611V6.49997Z" fill="#E6E6E6"/>
<path fill-rule="evenodd" clip-rule="evenodd" d="M13.8889 14.2778C13.8889 13.2083 14.7389 12.3333 15.7778 12.3333H21.4444V16.2222H15.7778C14.7389 16.2222 13.8889 15.3472 13.8889 14.2778ZM14.8334 14.2778C14.8334 14.8611 15.2111 15.25 15.7778 15.25C16.3445 15.25 16.7222 14.8611 16.7222 14.2778C16.7222 13.6945 16.3445 13.3056 15.7778 13.3056C15.2111 13.3056 14.8334 13.6945 14.8334 14.2778Z" fill="#E6E6E6"/>
</svg>
