<svg width="160" height="48" viewBox="0 0 160 48" fill="none" xmlns="http://www.w3.org/2000/svg">
<path fill-rule="evenodd" clip-rule="evenodd" d="M48.2857 1.19209e-07C48.2857 1.10457 49.2683 2 50.4805 2C51.6927 2 52.6753 1.10457 52.6753 1.19209e-07L160 0V48H52.6753C52.6753 46.8954 51.6927 46 50.4805 46C49.2683 46 48.2857 46.8954 48.2857 48H0V1.19209e-07H48.2857ZM48.2857 42C48.2857 40.8954 49.2683 40 50.4805 40C51.6927 40 52.6753 40.8954 52.6753 42C52.6753 43.1046 51.6927 44 50.4805 44C49.2683 44 48.2857 43.1046 48.2857 42ZM48.2857 36C48.2857 34.8954 49.2683 34 50.4805 34C51.6927 34 52.6753 34.8954 52.6753 36C52.6753 37.1046 51.6927 38 50.4805 38C49.2683 38 48.2857 37.1046 48.2857 36ZM48.2857 30C48.2857 28.8954 49.2683 28 50.4805 28C51.6927 28 52.6753 28.8954 52.6753 30C52.6753 31.1046 51.6927 32 50.4805 32C49.2683 32 48.2857 31.1046 48.2857 30ZM48.2857 24C48.2857 22.8954 49.2683 22 50.4805 22C51.6927 22 52.6753 22.8954 52.6753 24C52.6753 25.1046 51.6927 26 50.4805 26C49.2683 26 48.2857 25.1046 48.2857 24ZM48.2857 18C48.2857 16.8954 49.2683 16 50.4805 16C51.6927 16 52.6753 16.8954 52.6753 18C52.6753 19.1046 51.6927 20 50.4805 20C49.2683 20 48.2857 19.1046 48.2857 18ZM48.2857 12C48.2857 10.8954 49.2683 10 50.4805 10C51.6927 10 52.6753 10.8954 52.6753 12C52.6753 13.1046 51.6927 14 50.4805 14C49.2683 14 48.2857 13.1046 48.2857 12ZM48.2857 6C48.2857 4.89543 49.2683 4 50.4805 4C51.6927 4 52.6753 4.89543 52.6753 6C52.6753 7.10457 51.6927 8 50.4805 8C49.2683 8 48.2857 7.10457 48.2857 6Z" fill="url(#paint0_linear_84_2935)"/>
<defs>
<linearGradient id="paint0_linear_84_2935" x1="0" y1="50" x2="160" y2="50" gradientUnits="userSpaceOnUse">
<stop stop-color="#FFEBD4" stop-opacity="0.8"/>
<stop offset="0.05" stop-color="#FFEBD4" stop-opacity="0.4"/>
<stop offset="0.95" stop-color="#FFEBD4" stop-opacity="0"/>
</linearGradient>
</defs>
</svg>
