<svg width="76" height="76" viewBox="0 0 76 76" fill="none" xmlns="http://www.w3.org/2000/svg">
<path d="M29.3333 27L22.9167 29.6364V31.3939H23.8333C25.3 31.3939 25.6667 31.9798 25.6667 32.2727V41.0606C25.6667 42.4667 25.0556 42.8182 24.75 42.8182H23.8333C23.8333 44.2242 25.0556 44.5758 25.6667 44.5758V52.4848C25.6667 53.8909 25.0556 54.2424 24.75 54.2424H22V56H33V54.2424H30.25C29.5167 54.2424 29.3333 53.0707 29.3333 52.4848V44.5758C30.8 44.5758 31.1667 43.404 31.1667 42.8182H30.25C29.5167 42.8182 29.3333 41.6465 29.3333 41.0606V27Z" fill="#FFCC66"/>
<path fill-rule="evenodd" clip-rule="evenodd" d="M43.5 27C53.0455 27 50.1818 36.6667 51.1364 39.303C51.1364 42.1152 52.4091 42.8182 53.0455 42.8182H54C53.2364 44.2242 51.7727 44.5758 51.1364 44.5758C50.5 48.3838 51.1364 56 43.5 56C36.8182 56 36.1818 48.3838 35.8636 44.5758C34.3364 44.5758 33.3182 43.404 33 42.8182H33.9545C35.4818 42.8182 35.8636 40.4747 35.8636 39.303C35.8636 34.0374 35.6684 27 43.5 27ZM43.5 29.6364C40.6457 29.6364 39.6818 41.9394 40.6364 42.8182C41.5909 43.697 42.5455 42.8182 42.5455 42.8182C42.5455 43.404 42.1636 44.5758 40.6364 44.5758C40.6364 48.0909 41.2091 53.3636 43.5 53.3636C45.7909 53.3636 46.3636 48.0909 46.3636 44.5758C45.4091 44.5758 44.4546 44.2242 44.4545 42.8182C44.4545 42.8182 45.4091 43.697 46.3636 42.8182C47.3182 41.9394 46.391 29.6364 43.5 29.6364Z" fill="#FFCC66"/>
<path d="M36.5 10L34.3333 14.2353L30 14.9412L33.6111 17.7647L32.8889 22L36.5 19.8824L40 22L39.3889 17.7647L43 14.9412L38.6667 14.2353L36.5 10Z" fill="#FFCC66"/>
</svg>
