<svg width="76" height="76" viewBox="0 0 76 76" fill="none" xmlns="http://www.w3.org/2000/svg">
<path d="M58 52C57.7 51.9 46 46.1 46 46.1V41C47.1 41 48.6 36.4 48.6 34.9C48.6 33.4 48 33.2 48 33.2C48 33.2 48.3 32.6 48.9 31.6C49.2 31 49 30.3 49 30.3C49 30.3 51.2 29.8 52 28.3C52.8 26.8 52.8 24.8 52 23.3C51.2 21.8 47 18.1 44 17.3C41 16.5 33.2 17.1 31 19.3C28.8 21.5 29 22.5 29 23.3C29 24.1 30.3 26.2 31.2 27.4C31.4 27.6 31 28.3 31.1 28.5C31.6 29 32 29.3 32 29.3C32 29.3 32.5 30 32.2 31.1C31.7 33.1 31.7 35.9 31.9 37.5C32.2 39.8 33.3 41.8 33.3 41.8L33.1 45.1C33.1 45.1 17.7 52 16.7 53C15.2 54.5 14.9 57 14.9 57H60.9C61 57 61 53.2 58 52ZM32 25C32.1 25 34 20.5 39.2 20.9C46 21.5 50.4 25.8 50 28C50 28 49.7 26.6 47.7 25C45.6 23.4 42.4 22.1 39.8 21.7C40.1 21.9 40.3 22.4 40.2 22.9C40.1 23.6 39.6 24.2 39 24.1C38.5 24 38.1 23.4 38.2 22.7C38.3 22.2 38.5 21.7 38.9 21.5C36.7 21.3 33.6 22.7 32 25ZM32.5 28.8C32.5 28.8 34.6 26 38.8 26.2C43 26.4 47.5 28.9 47.7 29.6C48 30.3 47.4 30.3 47.2 30.3C47 30.3 42.7 28.7 38.1 28.8C33.6 28.8 32.6 29.6 32.5 28.8ZM42.6 51.5C42.1 51.5 41.6 51.1 41.6 50.5C41.6 49.9 42 49.5 42.6 49.5C43.2 49.5 43.6 49.9 43.6 50.5C43.6 51.1 43.2 51.5 42.6 51.5ZM42.6 46C42.3 46.5 42 48 42 48C42 48 41.9 46.4 41.2 46C40.6 45.7 34.1 42.4 34.1 42.4L42 45.1L45.1 44C45.1 44 42.9 45.6 42.6 46Z" fill="white"/>
</svg>
