<svg width="76" height="76" viewBox="0 0 76 76" fill="none" xmlns="http://www.w3.org/2000/svg">
<path d="M29 22H26V52H29V22Z" fill="white"/>
<path d="M49 22H46V52H49V22Z" fill="white"/>
<path d="M30 36H35V32H40V36H45V23H30V36Z" fill="white"/>
<path d="M40 41H35V37H30V51H45V37H40V41Z" fill="white"/>
<path d="M39 33H36V40H39V33Z" fill="white"/>
<path d="M22 45H19V52H22V45Z" fill="white"/>
<path d="M56 45H53V52H56V45Z" fill="white"/>
<path d="M23 23V25V27V29.2V31V32.2V34.2V37.2V39.2V42.2V43V44.2V47.2V49V51H25V23H23Z" fill="white"/>
<path d="M18 49V46V44.2V43V41.2V39.2V36.2V34.2V31.2V31V29.2V26.2V25V23H16V51H18V49Z" fill="white"/>
<path d="M22 22H19V29H22V22Z" fill="white"/>
<path d="M56 22H53V29H56V22Z" fill="white"/>
<path d="M24 30H17V44H24V30Z" fill="white"/>
<path d="M57 23V25V27V29.2V31V32.2V34.2V37.2V39.2V42.2V43V44.2V47.2V49V51H59V23H57Z" fill="white"/>
<path d="M52 49V46V44.2V43V41.2V39.2V36.2V34.2V31.2V31V29.2V26.2V25V23H50V51H52V49Z" fill="white"/>
<path d="M58 30H51V44H58V30Z" fill="white"/>
</svg>
