<svg width="40" height="40" viewBox="0 0 40 40" fill="none" xmlns="http://www.w3.org/2000/svg">
<mask id="mask0_68_542" style="mask-type:luminance" maskUnits="userSpaceOnUse" x="3" y="9" width="33" height="21">
<path d="M35.7895 9.47363H3.6842V29.9999H35.7895V9.47363Z" fill="white"/>
</mask>
<g mask="url(#mask0_68_542)">
<path d="M29.8925 22.7163H11.5466V23.3785H29.8925V22.7163Z" fill="#666666"/>
<path d="M35.1342 29.3379H15.4779V30H35.1342V29.3379Z" fill="#666666"/>
<path d="M16.7883 28.6758H29.2373V23.3787H19.4092L18.0987 24.7029L16.7883 28.6758Z" fill="#666666"/>
<path d="M19.4092 24.7029H27.2717L28.5821 23.3787H20.0644L19.4092 24.7029Z" fill="#666666"/>
<path d="M25.9613 28.6758H35.7895L33.1686 23.3787H27.9269L25.9613 28.6758Z" fill="#7F7F7F"/>
<path d="M34.479 28.6758H35.7894L34.479 24.7029L33.1686 23.3787V24.7029L34.479 28.6758Z" fill="#7F7F7F"/>
<path d="M27.9269 29.3379H35.1343L35.7895 28.6758H27.2717L27.9269 29.3379Z" fill="#7F7F7F"/>
<path d="M35.1342 28.6758H26.6165L27.9269 24.0408H33.1686L33.8238 24.7029L35.1342 28.6758Z" fill="#999999"/>
<path d="M25.306 28.6758H25.9612H26.6165L27.9269 24.7029L33.1686 24.0408V23.3787H27.9269L26.6165 24.7029L25.306 28.6758Z" fill="#999999"/>
<path d="M28.5821 24.7029L33.1686 24.0408V23.3787H27.9269L26.6165 24.7029H28.5821Z" fill="#E5E5E5"/>
<path d="M26.6165 25.3651L25.9613 23.3787H27.9269V25.3651H26.6165Z" fill="#999999"/>
<path d="M25.9613 28.6758H27.2717L28.5821 24.7029V23.3787H27.9269L27.2717 24.7029L25.9613 28.6758Z" fill="#E5E5E5"/>
<path d="M25.9612 29.3379H27.9269L27.2717 28.6758H25.306L25.9612 29.3379Z" fill="#999999"/>
<path d="M23.3405 29.3379H25.306L24.6509 28.6758H23.3405V29.3379Z" fill="#7F7F7F"/>
<path d="M25.9613 29.3379H6.96021V30H25.9613V29.3379Z" fill="#666666"/>
<path d="M8.27063 28.6758H20.0644V23.3787H10.8915L9.58105 24.7029L8.27063 28.6758Z" fill="#7F7F7F"/>
<path d="M16.7883 28.6758H26.6165L23.9956 23.3787H18.754L16.7883 28.6758Z" fill="#7F7F7F"/>
<path d="M25.306 28.6758H26.6164L25.306 24.7029L23.9956 23.3787V24.7029L25.306 28.6758Z" fill="#7F7F7F"/>
<path d="M18.754 29.3379H25.9612L26.6164 28.6758H18.0988L18.754 29.3379Z" fill="#7F7F7F"/>
<path d="M25.9613 28.6758H17.4436L18.754 24.0408H23.9957L24.6509 24.7029L25.9613 28.6758Z" fill="#999999"/>
<path opacity="0.4" d="M20.7196 28.6758H17.4436L19.4092 24.0408H23.9957L20.7196 28.6758Z" fill="#BCBCBC"/>
<path d="M16.7883 28.6758H17.4435L18.754 24.7029L23.9956 24.0408V23.3787H19.4092L18.0988 24.7029L16.7883 28.6758Z" fill="#BCBCBC"/>
<path d="M16.7883 28.6758H18.0988L19.4092 24.7029V24.0408V23.3787L18.0988 24.7029L16.7883 28.6758Z" fill="#E5E5E5"/>
<path d="M19.4092 24.7029L23.9956 24.0408V23.3787H19.4092L18.0988 24.7029H19.4092Z" fill="#E5E5E5"/>
<path d="M10.8914 29.3379H18.7539L18.0987 28.6758H10.2362L10.8914 29.3379Z" fill="#E5E5E5"/>
<path d="M15.4779 29.3379H17.4435L16.7883 28.6758H15.4779V29.3379Z" fill="#7F7F7F"/>
<path d="M12.2019 22.0542H23.9956V16.7571H14.8227L13.5123 18.0813L12.2019 22.0542Z" fill="#7F7F7F"/>
<path d="M20.7196 22.0542H30.5477L27.9269 16.7571H22.6852L20.7196 22.0542Z" fill="#7F7F7F"/>
<path d="M29.2373 22.0542H30.5477L29.2373 18.0813L27.9269 16.7571V18.0813L29.2373 22.0542Z" fill="#7F7F7F"/>
<path d="M22.6852 22.7164H29.8926L30.5478 22.0542H22.03L22.6852 22.7164Z" fill="#999999"/>
<path d="M29.8925 22.0542H21.3748L22.6852 17.4192H27.9269L28.5821 18.0813L29.8925 22.0542Z" fill="#999999"/>
<path opacity="0.4" d="M24.6508 22.0542H21.3748L23.3404 17.4192H27.9269L24.6508 22.0542Z" fill="#BCBCBC"/>
<path d="M20.0645 22.0542H20.7197H21.3749L22.6853 18.0813L27.9269 17.4192V16.7571H22.6853L21.3749 18.0813L20.0645 22.0542Z" fill="#BCBCBC"/>
<path d="M20.7196 22.0542H22.03L23.3404 18.0813V17.4192L22.6852 16.7571L22.03 18.0813L20.7196 22.0542Z" fill="#E5E5E5"/>
<path d="M23.3404 18.0813L27.9269 17.4192V16.7571H22.6852L21.3748 18.0813H23.3404Z" fill="#E5E5E5"/>
<path d="M20.7196 22.0544H19.4092L20.7196 18.0815H22.03L20.7196 22.0544Z" fill="#BCBCBC"/>
<path d="M22.03 18.0813H20.7196L22.03 16.7571H23.3404L22.03 18.0813Z" fill="#BCBCBC"/>
<path d="M14.8227 22.7164H22.6852L22.03 22.0542H14.1675L14.8227 22.7164Z" fill="#999999"/>
<path d="M16.7883 22.7164H20.0644L19.4092 22.0542H16.7883V22.7164Z" fill="#7F7F7F"/>
<path d="M14.8227 29.9999H6.30499L5.64978 28.6757V26.0271H15.4779V29.3378L14.8227 29.9999Z" fill="#D29D43"/>
<path d="M15.4779 29.3378L13.5123 26.0271H12.2019L17.4435 10.1358L18.0987 9.47363L20.0644 10.7979L20.7196 12.1222L15.4779 29.3378Z" fill="#D7A044"/>
<path d="M5.64978 26.0271V26.6893L6.30499 27.3514H13.5123L14.8227 26.0271H6.9602H5.64978Z" fill="#D49E43"/>
<path d="M12.8571 26.6893H6.30499L5.64978 26.0271L10.8915 10.1358L12.2019 9.47363H18.0987L18.7539 10.1358L13.5123 26.0271L12.8571 26.6893Z" fill="#EFBB58"/>
<path d="M18.754 10.1358L18.0987 10.7979H12.2019V9.47363H18.0987L18.754 10.1358Z" fill="#FFCC66"/>
<mask id="mask1_68_542" style="mask-type:luminance" maskUnits="userSpaceOnUse" x="5" y="9" width="14" height="18">
<path d="M12.8571 26.6893H6.30499L5.64978 26.0271L10.8915 10.1358L12.2019 9.47363H18.0987L18.7539 10.1358L13.5123 26.0271L12.8571 26.6893Z" fill="white"/>
</mask>
<g mask="url(#mask1_68_542)">
<path d="M6.9602 26.6893H6.30499L5.64978 26.0271L10.8915 10.1358L12.2019 9.47363V10.7979L6.9602 26.6893Z" fill="#FFCC66"/>
<path d="M13.5123 26.0271L12.8571 26.6893H12.2019L18.0988 9.47363L18.754 10.1358L13.5123 26.0271Z" fill="#FFCC66"/>
<path d="M7.61547 26.6892H3.6842L15.478 10.1357H18.754L7.61547 26.6892Z" fill="#FFCC66"/>
</g>
<path d="M16.133 10.7979H12.2018L10.8914 14.1085L11.5466 14.7707L16.133 11.46V10.7979Z" fill="#AE7624"/>
<path d="M16.1331 11.46H12.857L11.5466 14.7706L12.857 15.4328L14.8226 14.7706L16.1331 11.46Z" fill="#E3A945"/>
<path d="M14.8227 29.9998H14.1675L12.8571 27.3513H13.5123L14.8227 29.9998Z" fill="#FFCC66"/>
<path d="M14.1675 29.9998H6.30499L5.64978 28.6756V27.3513H12.2019L14.1675 29.9998Z" fill="#A97224"/>
<path d="M25.9612 29.3379H25.306L25.9612 28.6758H26.6165L25.9612 29.3379Z" fill="#7F7F7F"/>
<path d="M35.1342 29.3379H34.479L35.1342 28.6758H35.7894L35.1342 29.3379Z" fill="#7F7F7F"/>
<path d="M29.8925 22.7164H29.2373L29.8925 22.0542H30.5477L29.8925 22.7164Z" fill="#7F7F7F"/>
</g>
</svg>
