<svg width="76" height="76" viewBox="0 0 76 76" fill="none" xmlns="http://www.w3.org/2000/svg">
<mask id="mask0_28_795" style="mask-type:luminance" maskUnits="userSpaceOnUse" x="7" y="18" width="61" height="39">
<path d="M68 18H7V57H68V18Z" fill="white"/>
</mask>
<g mask="url(#mask0_28_795)">
<path d="M56.7959 43.1613H21.9388V44.4194H56.7959V43.1613Z" fill="#666666"/>
<path d="M66.7551 55.7419H29.4082V57H66.7551V55.7419Z" fill="#666666"/>
<path d="M31.8981 54.4839H55.5511V44.4194H36.8777L34.3879 46.9355L31.8981 54.4839Z" fill="#666666"/>
<path d="M36.8777 46.9355H51.8164L54.3062 44.4194H38.1226L36.8777 46.9355Z" fill="#666666"/>
<path d="M49.3265 54.4839H68L63.0204 44.4194H53.0612L49.3265 54.4839Z" fill="#7F7F7F"/>
<path d="M65.5102 54.4839H68L65.5102 46.9355L63.0204 44.4194V46.9355L65.5102 54.4839Z" fill="#7F7F7F"/>
<path d="M53.0612 55.742H66.7551L68 54.4839H51.8163L53.0612 55.742Z" fill="#7F7F7F"/>
<path d="M66.7551 54.4839H50.5714L53.0612 45.6774H63.0204L64.2653 46.9355L66.7551 54.4839Z" fill="#999999"/>
<path d="M48.0817 54.4839H49.3266H50.5715L53.0613 46.9355L63.0205 45.6774V44.4194H53.0613L50.5715 46.9355L48.0817 54.4839Z" fill="#999999"/>
<path d="M54.3061 46.9355L63.0204 45.6774V44.4194H53.0612L50.5714 46.9355H54.3061Z" fill="#E5E5E5"/>
<path d="M50.5714 48.1936L49.3265 44.4194H53.0612V48.1936H50.5714Z" fill="#999999"/>
<path d="M49.3265 54.4839H51.8163L54.3061 46.9355V44.4194H53.0612L51.8163 46.9355L49.3265 54.4839Z" fill="#E5E5E5"/>
<path d="M49.3266 55.742H53.0613L51.8164 54.4839H48.0817L49.3266 55.742Z" fill="#999999"/>
<path d="M44.347 55.742H48.0816L46.8368 54.4839H44.347V55.742Z" fill="#7F7F7F"/>
<path d="M49.3265 55.7419H13.2245V57H49.3265V55.7419Z" fill="#666666"/>
<path d="M15.7144 54.4839H38.1226V44.4194H20.694L18.2042 46.9355L15.7144 54.4839Z" fill="#7F7F7F"/>
<path d="M31.8979 54.4839H50.5714L45.5919 44.4194H35.6326L31.8979 54.4839Z" fill="#7F7F7F"/>
<path d="M48.0816 54.4839H50.5714L48.0816 46.9355L45.5918 44.4194V46.9355L48.0816 54.4839Z" fill="#7F7F7F"/>
<path d="M35.6327 55.742H49.3265L50.5714 54.4839H34.3878L35.6327 55.742Z" fill="#7F7F7F"/>
<path d="M49.3265 54.4839H33.1429L35.6326 45.6774H45.5918L46.8367 46.9355L49.3265 54.4839Z" fill="#999999"/>
<path opacity="0.4" d="M39.3673 54.4839H33.1429L36.8775 45.6774H45.5918L39.3673 54.4839Z" fill="#BCBCBC"/>
<path d="M31.8979 54.4839H33.1428L35.6326 46.9355L45.5919 45.6774V44.4194H36.8775L34.3877 46.9355L31.8979 54.4839Z" fill="#BCBCBC"/>
<path d="M31.8979 54.4839H34.3877L36.8775 46.9355V45.6774V44.4194L34.3877 46.9355L31.8979 54.4839Z" fill="#E5E5E5"/>
<path d="M36.8776 46.9355L45.5918 45.6774V44.4194H36.8776L34.3878 46.9355H36.8776Z" fill="#E5E5E5"/>
<path d="M20.694 55.742H35.6327L34.3879 54.4839H19.4491L20.694 55.742Z" fill="#E5E5E5"/>
<path d="M29.4082 55.742H33.1429L31.898 54.4839H29.4082V55.742Z" fill="#7F7F7F"/>
<path d="M23.1837 41.9032H45.5918V31.8387H28.1633L25.6735 34.3548L23.1837 41.9032Z" fill="#7F7F7F"/>
<path d="M39.3674 41.9032H58.0408L53.0612 31.8387H43.1021L39.3674 41.9032Z" fill="#7F7F7F"/>
<path d="M55.5511 41.9032H58.0409L55.5511 34.3548L53.0613 31.8387V34.3548L55.5511 41.9032Z" fill="#7F7F7F"/>
<path d="M43.1021 43.1613H56.796L58.0409 41.9032H41.8572L43.1021 43.1613Z" fill="#999999"/>
<path d="M56.796 41.9032H40.6123L43.1021 33.0967H53.0613L54.3062 34.3548L56.796 41.9032Z" fill="#999999"/>
<path opacity="0.4" d="M46.8368 41.9032H40.6123L44.347 33.0967H53.0613L46.8368 41.9032Z" fill="#BCBCBC"/>
<path d="M38.1226 41.9032H39.3675H40.6124L43.1022 34.3548L53.0613 33.0967V31.8387H43.1022L40.6124 34.3548L38.1226 41.9032Z" fill="#BCBCBC"/>
<path d="M39.3674 41.9032H41.8572L44.347 34.3548V33.0967L43.1021 31.8387L41.8572 34.3548L39.3674 41.9032Z" fill="#E5E5E5"/>
<path d="M44.347 34.3548L53.0613 33.0967V31.8387H43.1021L40.6123 34.3548H44.347Z" fill="#E5E5E5"/>
<path d="M39.3675 41.9032H36.8777L39.3675 34.3548H41.8573L39.3675 41.9032Z" fill="#BCBCBC"/>
<path d="M41.8572 34.3548H39.3674L41.8572 31.8387H44.347L41.8572 34.3548Z" fill="#BCBCBC"/>
<path d="M28.1634 43.1613H43.1021L41.8572 41.9032H26.9185L28.1634 43.1613Z" fill="#999999"/>
<path d="M31.8981 43.1613H38.1226L36.8777 41.9032H31.8981V43.1613Z" fill="#7F7F7F"/>
<path d="M28.1633 57H11.9796L10.7347 54.4839V49.4516H29.4081V55.7419L28.1633 57Z" fill="#D29D43"/>
<path d="M29.4081 55.7419L25.6735 49.4516H23.1837L33.1428 19.2581L34.3877 18L38.1224 20.5161L39.3673 23.0323L29.4081 55.7419Z" fill="#D7A044"/>
<path d="M10.7347 49.4516V50.7097L11.9796 51.9677H25.6735L28.1633 49.4516H13.2245H10.7347Z" fill="#D49E43"/>
<path d="M24.4286 50.7097H11.9796L10.7347 49.4516L20.6939 19.2581L23.1837 18H34.3877L35.6326 19.2581L25.6735 49.4516L24.4286 50.7097Z" fill="#EFBB58"/>
<path d="M35.6326 19.2581L34.3877 20.5161H23.1837V18H34.3877L35.6326 19.2581Z" fill="#FFCC66"/>
<mask id="mask1_28_795" style="mask-type:luminance" maskUnits="userSpaceOnUse" x="10" y="18" width="26" height="33">
<path d="M24.4286 50.7097H11.9796L10.7347 49.4516L20.6939 19.2581L23.1837 18H34.3877L35.6326 19.2581L25.6735 49.4516L24.4286 50.7097Z" fill="white"/>
</mask>
<g mask="url(#mask1_28_795)">
<path d="M13.2245 50.7097H11.9796L10.7347 49.4516L20.6939 19.2581L23.1837 18V20.5161L13.2245 50.7097Z" fill="#FFCC66"/>
<path d="M25.6735 49.4516L24.4286 50.7097H23.1837L34.3878 18L35.6327 19.2581L25.6735 49.4516Z" fill="#FFCC66"/>
<path d="M14.4694 50.7097H7L29.4082 19.2581H35.6327L14.4694 50.7097Z" fill="#FFCC66"/>
</g>
<path d="M30.653 20.5161H23.1836L20.6938 26.8064L21.9387 28.0645L30.653 21.7742V20.5161Z" fill="#AE7624"/>
<path d="M30.653 21.7742H24.4285L21.9388 28.0645L24.4285 29.3226L28.1632 28.0645L30.653 21.7742Z" fill="#E3A945"/>
<path d="M28.1633 57H26.9184L24.4286 51.9678H25.6735L28.1633 57Z" fill="#FFCC66"/>
<path d="M26.9184 57H11.9796L10.7347 54.4839V51.9678H23.1837L26.9184 57Z" fill="#A97224"/>
<path d="M49.3266 55.742H48.0817L49.3266 54.4839H50.5715L49.3266 55.742Z" fill="#7F7F7F"/>
<path d="M66.7551 55.742H65.5103L66.7551 54.4839H68.0001L66.7551 55.742Z" fill="#7F7F7F"/>
<path d="M56.7959 43.1613H55.551L56.7959 41.9032H58.0408L56.7959 43.1613Z" fill="#7F7F7F"/>
</g>
</svg>
