<svg width="76" height="76" viewBox="0 0 76 76" fill="none" xmlns="http://www.w3.org/2000/svg">
<path d="M28 31L34 37C34 37 35 36 35.42 35.42L30 30C29.78 29.78 29.77 29.22 30 29C30.23 28.78 31.02 28.91 31 28.99L36 34H37V32L32 27C32 27 32.48 22.98 31 21C29.52 19.02 24 19 24 19L29 24L25 28L20 23C20 23 20.03 28.51 22 30C23.97 31.49 28 31 28 31Z" fill="white"/>
<path d="M54.23 44C52.26 42.51 48.29 42.98 48.29 42.98L43.23 38C42.69 38 41.22 38 41.22 38C41.23 38 41.23 39 41.23 39L46.23 44C46.69 44.36 46.46 44.78 46.23 45C46 45.22 45.45 45.22 45.23 45L39.76 39.55L38.23 41L44.23 47C44.23 47 43.75 51.51 45.23 53C46.71 54.49 49.77 55.5 52.23 55L47.23 50L51.23 46L56.23 51C56.23 51 57.4 46.4 54.23 44Z" fill="white"/>
<path d="M45.23 37.03L57.23 25.03C57.23 25.03 50.27 18.07 50.23 18.03C50.2 18 44.79 23.5 43.23 25.03L40.23 28.03C39.85 28.42 38.23 30.06 38.23 30.03C38.23 30.03 38.56 34.23 37.23 36.03C35.9 37.83 27.29 44.01 26.23 45.03C23.87 47.3 21.03 51.82 22.27 53.07C23.51 54.32 28.21 51.22 30.23 49.03C31.89 47.22 38.23 39.03 39.23 38.03C41.23 36.03 45.23 37.03 45.23 37.03ZM43.23 26.03C44.5 27.3 47.89 30.69 49.23 32.03L46.23 35.03C44.91 33.69 41.51 30.31 40.23 29.03L43.23 26.03Z" fill="white"/>
</svg>
