<svg width="76" height="76" viewBox="0 0 76 76" fill="none" xmlns="http://www.w3.org/2000/svg">
<path d="M29.51 45.66C24.92 45.66 21.19 42.42 21.19 37.71C21.19 33 24.92 28.97 29.51 29.18C31.92 29.29 33.12 30.14 34.65 31.4L36.68 30.58C34.84 28.74 32.29 27.22 29.52 27.22C23.87 27.22 19.2 31.34 19.2 37.62C19.2 43.42 23.8 47.84 29.45 47.72C32.09 47.66 34.1699 47.55 39.2599 43.53L37.7799 41.96C33.9799 44.77 32.53 45.66 29.51 45.66Z" fill="white"/>
<path d="M24.14 37.5C24.11 33.59 28.39 30.42 31.61 33.01L33.62 31.99C33.85 31.96 29.98 28.7 25.61 31.35C22.92 32.98 22.13 35.59 22.13 37.54C22.13 41.32 25.15 43.89 28.09 44.47C30.84 45.01 32.43 44.66 37.19 41.44L35.68 39.96C35.68 39.96 33.72 41.09 32.11 42.04C29.03 43.85 24.18 41.71 24.14 37.5Z" fill="white"/>
<path d="M49.21 32.08C51.12 31.91 51.93 33.04 51.93 33.04H55.28C53.94 31.42 51.93 30.05 49.51 30.05C47.51 30.05 46.35 30.5 43.28 32.04C39.28 34.04 31.51 38.02 31.45 38.02C30.4 38.02 25.28 38.04 25.28 38.04C25.28 38.04 25.28 39.04 26.28 40.04C27.28 41.04 28.28 41.04 28.28 41.04C28.28 41.04 28.63 41.08 31.28 41.04C32.38 41.01 44.25 32.51 49.21 32.08Z" fill="white"/>
<path d="M49.42 44.87C51.42 44.89 53.94 43.64 55.28 42.03L52.04 42.01C52.04 42.01 51.47 42.96 49.53 42.8C46.54 42.55 41.04 36.82 41.04 36.82L39.27 37.94C39.27 37.94 40.29 39.03 42.29 41.03C45.28 44.03 47.9 44.85 49.42 44.87Z" fill="white"/>
<path d="M49.35 45.91C46.22 45.86 43.27 43.03 41.27 41.03L38.44 38.36L36.66 39.42L41.27 44.03C43.27 46.03 45.52 48.03 49.27 48.03C52.54 48.03 56.55 45.52 58.27 42.03C57.53 42.03 57.02 42.03 56.27 42.03C54.75 44.4 51.96 45.95 49.35 45.91Z" fill="white"/>
<path d="M31.67 34.07C30.67 34.07 28.27 34.03 28.27 34.03C28.27 34.03 27.27 34.03 26.27 35.03C25.27 36.03 25.27 37.03 25.27 37.03C25.27 37.03 31.29 37.05 31.27 37.03C31.27 37.03 34.98 35.22 39.27 33.03C42.99 31.14 45.78 29.26 49.35 29.17C52.96 29.08 54.98 31.18 56.27 33.03H58.27C56.55 29.54 53.6 27.32 49.8 27.3C45.59 27.28 42.33 29.37 39.09 30.73C34.23 32.76 31.68 34.07 31.67 34.07Z" fill="white"/>
<path d="M15.05 37.01L18.08 36.99C18.2 34.64 18.57 34 18.57 34L15.08 33.99L15.05 37.01Z" fill="white"/>
<path d="M15.01 41.04L18.55 41.02C18.55 41.02 17.96 39.7 17.98 38.02L15 38.04L15.01 41.04Z" fill="white"/>
<path d="M47.94 34.03C47.94 34.03 46.14 34.6 44.88 35.23C42.88 36.23 41.94 37.03 42.94 37.03C43.94 37.03 59.94 37.03 59.94 37.03V34.03H47.94Z" fill="white"/>
<path d="M47.94 41.03H59.94V38.03C59.94 38.03 44.94 38.03 43.94 38.03C42.94 38.03 47.94 41.03 47.94 41.03Z" fill="white"/>
</svg>
