<svg width="76" height="76" viewBox="0 0 76 76" fill="none" xmlns="http://www.w3.org/2000/svg">
<path d="M22.9099 21.13C23.1699 20.23 23.1999 18.08 23.1999 18.08C23.1999 18.08 21.3299 18.94 20.4399 20.51C19.6299 21.94 19.9799 23.81 19.9799 23.81C19.9799 23.81 22.3199 23.15 22.9099 21.13Z" fill="white"/>
<path d="M20.54 24.86C19.38 26.02 19.21 27.91 19.21 27.91C19.21 27.91 21.65 27.9 22.75 26.11C23.24 25.31 23.85 23.25 23.85 23.25C23.85 23.25 21.82 23.57 20.54 24.86Z" fill="white"/>
<path d="M18.89 25.35C18.83 24.41 18.14 22.38 18.14 22.38C18.14 22.38 16.66 23.82 16.36 25.6C16.08 27.22 17.03 28.86 17.03 28.86C17.03 28.86 19.03 27.46 18.89 25.35Z" fill="white"/>
<path d="M16.01 33.14C16.01 33.14 17.43 31.16 16.63 29.22C16.27 28.35 14.96 26.65 14.96 26.65C14.96 26.65 14.03 28.49 14.32 30.28C14.58 31.9 16.01 33.14 16.01 33.14Z" fill="white"/>
<path d="M20.8999 31.27C21.3199 30.43 21.7499 28.32 21.7499 28.32C21.7499 28.32 19.7499 28.82 18.5899 30.21C17.5299 31.47 17.5299 33.37 17.5299 33.37C17.5299 33.37 19.9599 33.15 20.8999 31.27Z" fill="white"/>
<path d="M17.4299 37.92C17.4299 37.92 17.9399 35.54 16.4099 34.08C15.7299 33.43 13.8399 32.4 13.8399 32.4C13.8399 32.4 13.7299 34.46 14.7199 35.98C15.6199 37.36 17.4299 37.92 17.4299 37.92Z" fill="white"/>
<path d="M21.3799 35.46C21.3599 34.52 20.7599 32.46 20.7599 32.46C20.7599 32.46 18.9399 33.79 18.2199 35.04C17.6899 35.96 18.1899 36.85 18.2199 37.04C18.2499 37.26 19.5599 37.81 20.2199 37.04C20.5999 36.6 21.3899 36.16 21.3799 35.46Z" fill="white"/>
<path d="M21.81 45.32C21.81 45.32 21.09 42.99 19.05 42.46C18.14 42.22 16.21 42.04 16.21 42.04C16.21 42.04 16.9 44.1 18.5 44.95C19.96 45.72 21.81 45.32 21.81 45.32Z" fill="white"/>
<path d="M23.86 48.72C23.86 48.72 22.99 46.44 20.93 46.04C20.01 45.86 17.86 46.02 17.86 46.02C17.86 46.02 18.88 47.81 20.53 48.55C22.03 49.23 23.86 48.72 23.86 48.72Z" fill="white"/>
<path d="M24.0899 49.24C23.1499 49.35 21.1599 50.15 21.1599 50.15C21.1599 50.15 22.6799 51.55 24.4699 51.76C26.0999 51.95 27.6899 50.91 27.6899 50.91C27.6899 50.91 26.1899 49 24.0899 49.24Z" fill="white"/>
<path d="M25.29 43.63C25.19 43.48 23.22 43.05 22.93 43.37C22.56 43.77 23 44.51 23.2 45.08C23.74 46.63 25.37 47.61 25.37 47.61C25.37 47.61 26.42 45.4 25.29 43.63Z" fill="white"/>
<path d="M26.5999 48.44C27.2299 49.96 28.9099 50.84 28.9099 50.84C28.9099 50.84 29.8399 48.59 28.6099 46.88C28.0599 46.12 26.3899 44.76 26.3899 44.76C26.3899 44.76 25.8999 46.76 26.5999 48.44Z" fill="white"/>
<path d="M28.02 51.87C27.13 52.19 25.37 53.41 25.37 53.41C25.37 53.41 27.16 54.43 28.96 54.23C30.59 54.05 31.91 52.68 31.91 52.68C31.91 52.68 30.01 51.17 28.02 51.87Z" fill="white"/>
<path d="M32.39 53.75C31.61 54.28 30.21 55.91 30.21 55.91C30.21 55.91 32.2 56.45 33.89 55.8C35.43 55.21 36.35 53.56 36.35 53.56C36.35 53.56 34.13 52.57 32.39 53.75Z" fill="white"/>
<path d="M29.98 47.96C29.98 47.96 30.27 50 31.53 51.3C32.68 52.48 34.56 52.68 34.56 52.68C34.56 52.68 34.59 50.24 32.82 49.11C32.03 48.6 29.98 47.96 29.98 47.96Z" fill="white"/>
<path d="M55.3 21.13C55.04 20.23 55.01 18.08 55.01 18.08C55.01 18.08 56.88 18.94 57.77 20.51C58.58 21.94 58.23 23.81 58.23 23.81C58.23 23.81 55.88 23.15 55.3 21.13Z" fill="white"/>
<path d="M57.66 24.86C58.82 26.02 58.99 27.91 58.99 27.91C58.99 27.91 56.55 27.9 55.45 26.11C54.96 25.31 54.35 23.25 54.35 23.25C54.35 23.25 56.38 23.57 57.66 24.86Z" fill="white"/>
<path d="M59.3099 25.35C59.3699 24.41 60.0599 22.38 60.0599 22.38C60.0599 22.38 61.5399 23.82 61.8399 25.6C62.1199 27.22 61.1699 28.86 61.1699 28.86C61.1699 28.86 59.1799 27.46 59.3099 25.35Z" fill="white"/>
<path d="M62.19 33.14C62.19 33.14 60.77 31.16 61.57 29.22C61.93 28.35 63.24 26.65 63.24 26.65C63.24 26.65 64.17 28.49 63.88 30.28C63.63 31.9 62.19 33.14 62.19 33.14Z" fill="white"/>
<path d="M57.2999 31.27C56.8799 30.43 56.45 28.32 56.45 28.32C56.45 28.32 58.45 28.82 59.61 30.21C60.67 31.47 60.6699 33.37 60.6699 33.37C60.6699 33.37 58.2499 33.15 57.2999 31.27Z" fill="white"/>
<path d="M60.92 35.48C60.68 35.02 61.35 34.49 61.79 34.08C62.47 33.43 64.36 32.4 64.36 32.4C64.36 32.4 64.22 35.04 63.48 35.98C63.31 36.19 61.22 36.04 60.92 35.48Z" fill="white"/>
<path d="M56.83 35.46C56.3 34.68 57.45 32.46 57.45 32.46C57.45 32.46 60.07 34.48 60.22 36.04C60.26 36.5 57.22 36.04 56.83 35.46Z" fill="white"/>
<path d="M56.39 45.32C56.39 45.32 56.74 44.2 57.63 43.34C57.71 43.26 60.59 42.59 61.22 43.04C61.65 43.35 60 44.79 59.7 44.95C58.25 45.72 56.39 45.32 56.39 45.32Z" fill="white"/>
<path d="M54.35 48.72C54.35 48.72 55.22 46.44 57.28 46.04C58.2 45.86 60.35 46.02 60.35 46.02C60.35 46.02 59.33 47.81 57.68 48.55C56.18 49.23 54.35 48.72 54.35 48.72Z" fill="white"/>
<path d="M54.11 49.24C55.05 49.35 57.04 50.15 57.04 50.15C57.04 50.15 55.52 51.55 53.73 51.76C52.1 51.95 50.51 50.91 50.51 50.91C50.51 50.91 52.02 49 54.11 49.24Z" fill="white"/>
<path d="M52.92 43.63C53.22 43.05 55.22 43.05 55.27 43.66C55.31 44.12 55.17 44.61 55.01 45.08C54.47 46.63 52.84 47.61 52.84 47.61C52.84 47.61 51.96 45.5 52.92 43.63Z" fill="white"/>
<path d="M51.61 48.44C50.98 49.96 49.3 50.84 49.3 50.84C49.3 50.84 48.37 48.59 49.6 46.88C50.15 46.12 51.82 44.76 51.82 44.76C51.82 44.76 52.31 46.76 51.61 48.44Z" fill="white"/>
<path d="M50.18 51.87C51.07 52.19 52.83 53.41 52.83 53.41C52.83 53.41 51.04 54.43 49.24 54.23C47.61 54.05 46.29 52.68 46.29 52.68C46.29 52.68 48.2 51.17 50.18 51.87Z" fill="white"/>
<path d="M45.82 53.75C46.6 54.28 48 55.91 48 55.91C48 55.91 46 56.45 44.31 55.8C42.77 55.21 41.85 53.56 41.85 53.56C41.85 53.56 44.07 52.57 45.82 53.75Z" fill="white"/>
<path d="M48.2199 47.96C48.2199 47.96 47.9299 50 46.6699 51.3C45.5199 52.48 43.6399 52.68 43.6399 52.68C43.6399 52.68 43.6099 50.24 45.3799 49.11C46.1699 48.6 48.2199 47.96 48.2199 47.96Z" fill="white"/>
<path d="M55.22 37.04V36.04H54.22V37.04H53.22L52.22 35.04H51.22V36.04H48.22V33.04H46.22V32.04H45.22L44.22 26.04V35.04V38.04H43.22V36.04L42.22 34.04H39.22L40.22 35.04V38.04H34.22V37.04H33.22V38.04H32.22L31.22 36.04H29.22L28.22 32.04V38.04H27.22V37.04L26.22 36.04V38.04H25.22V39.04H23.22V37.04H22.22L20.22 39.04H12.22V40.04H13.22V42.04H15.22V41.04H22.22V42.04H64.22L66.22 37.04H55.22Z" fill="white"/>
<path d="M39.15 55.23C40.0833 55.23 40.84 54.4734 40.84 53.54C40.84 52.6066 40.0833 51.85 39.15 51.85C38.2166 51.85 37.46 52.6066 37.46 53.54C37.46 54.4734 38.2166 55.23 39.15 55.23Z" fill="white"/>
</svg>
