<svg width="11" height="10" viewBox="0 0 11 10" fill="none" xmlns="http://www.w3.org/2000/svg">
<path d="M5.51605 0.70567L6.56868 3.73661L9.77742 3.80189L10.5345 3.81731L9.9311 4.27475L7.37405 6.21299L8.30337 9.28504L8.52284 10.0092L7.90142 9.57699L5.26726 7.74409L2.63312 9.57699L2.01172 10.0092L2.23119 9.28504L3.15995 6.21299L0.60341 4.27475L0 3.81731L0.757095 3.80189L3.96536 3.73661L5.01851 0.70567L5.26726 -0.00927734L5.51605 0.70567ZM4.15347 3.99617L0.762232 4.06504L3.46525 6.1143L2.48304 9.36109L5.26726 7.42341L8.05153 9.36109L7.06926 6.1143L9.77232 4.06504L6.38105 3.99617L5.26726 0.792017L4.15347 3.99617Z" fill="#FFEBD4"/>
<path d="M5.26721 0.791992L6.38089 3.99596L9.77221 4.06507L7.06921 6.11433L8.05147 9.36101L5.26721 7.42359L2.48297 9.36101L3.46521 6.11433L0.762207 4.06507L4.15352 3.99596L5.26721 0.791992Z" fill="#FFEBD4"/>
</svg>
